<svg height="511pt" viewBox="0 0 511 511.9972" width="511pt" xmlns="http://www.w3.org/2000/svg"><path d="m99.410156 380.160156c.074219 3.65625 3.738282 6.21875 7.195313 5.039063 16.109375-5.480469 35.953125-1.191407 53.121093-25.710938 10.097657-14.421875 10.703126-39.203125-5.222656-50.351562-15.925781-11.152344-39.003906-2.109375-49.101562 12.3125-17.167969 24.519531-6.351563 41.699219-5.992188 58.710937zm0 0" fill="#4e5660"/><g fill="#e9901b"><path d="m182.039062 408.59375c-8.257812 0-15.726562-5.660156-17.675781-14.046875-4.652343-19.972656-9.617187-43.566406-9.605469-70.8125.003907-10.03125 8.136719-18.160156 18.167969-18.160156h.007813c10.03125.003906 18.164062 8.140625 18.160156 18.171875-.011719 23.390625 4.460938 44.554687 8.652344 62.558594 2.277344 9.769531-3.796875 19.535156-13.570313 21.8125-1.386719.324218-2.773437.476562-4.136719.476562zm0 0"/><path d="m250.234375 396.394531c-9.0625 0-16.898437-6.765625-18.011719-15.988281-2.21875-18.351562-5.253906-39.769531-13.261718-61.742188-3.4375-9.429687 1.417968-19.855468 10.847656-23.289062 9.429687-3.4375 19.851562 1.421875 23.289062 10.847656 9.328125 25.597656 12.734375 49.464844 15.195313 69.824219 1.203125 9.960937-5.894531 19.011719-15.855469 20.214844-.742188.089843-1.476562.132812-2.203125.132812zm0 0"/><path d="m53.167969 284.4375c-8.984375 0-17.722657-.847656-25.9375-2.609375-9.808594-2.101563-16.058594-11.761719-13.953125-21.570313 2.101562-9.8125 11.765625-16.050781 21.566406-13.957031 25.519531 5.472657 59.636719-1.511719 82.964844-16.976562 8.363281-5.542969 19.636718-3.257813 25.179687 5.105469 5.542969 8.363281 3.257813 19.632812-5.101562 25.179687-23.945313 15.871094-55.574219 24.828125-84.71875 24.828125zm0 0"/><path d="m251.324219 241.035156c-8.457031 0-16.03125-5.9375-17.78125-14.546875-2-9.832031 4.347656-19.425781 14.175781-21.425781 17.636719-3.589844 58.929688-11.996094 80.078125-27.050781 8.175781-5.820313 19.515625-3.910157 25.335937 4.261719 5.820313 8.171874 3.910157 19.515624-4.261718 25.332031-27.421875 19.527343-72.324219 28.667969-93.902344 33.058593-1.222656.25-2.445312.371094-3.644531.371094zm0 0"/></g><path d="m207.035156 335.351562c50.632813-8.925781 82.5-39.453124 70.25-89.136718-12.320312-49.984375-60.378906-83.886719-99.542968-76.980469-39.160157 6.90625-72.722657 55.199219-67.210938 106.382813 5.484375 50.875 45.871094 68.664062 96.503906 59.734374zm0 0" fill="#eea849"/><path d="m44.652344 144.457031c-25.746094-16.761719-36.613282-51.640625-36.652344-77.289062-.011719-5.628907 3.972656-10.488281 9.496094-11.578125 27.132812-5.351563 63.714844-4.820313 83.75 21.582031zm0 0" fill="#4e5660"/><path d="m8.011719 67.945312c.25 25.570313 11.148437 59.917969 36.640625 76.511719l35.34375-42.023437c-16.878906-18-43.097656-31.375-71.984375-34.488282zm0 0" fill="#f2d1a5"/><path d="m294.335938 100.429688c18.460937-24.554688 16.742187-61.050782 8.007812-85.164063-1.917969-5.289063-7.324219-8.496094-12.886719-7.628906-27.324219 4.25-61.519531 17.261719-71.3125 48.921875zm0 0" fill="#4e5660"/><path d="m302.597656 16c8.507813 24.117188 10.015625 60.121094-8.261718 84.429688l-47.585938-27.398438c9.707031-22.6875 29.769531-44.226562 55.847656-57.03125zm0 0" fill="#f2d1a5"/><path d="m156.894531 50.988281c94.25-16.617187 106.347657 40.164063 167.785157 63.007813 11.617187 4.316406 16.351562 18.222656 9.496093 28.546875-30.015625 45.214843-78.714843 81.933593-144.640625 93.558593-65.929687 11.625-124.25-6.222656-167.917968-38.445312-9.972657-7.359375-10.28125-22.042969-.84375-30.074219 49.925781-42.476562 41.871093-99.972656 136.121093-116.59375zm0 0" fill="#eea849"/><path d="m105.667969 68.546875c-42.414063 25.03125-46.597657 66.449219-84.894531 99.035156-9.4375 8.03125-9.128907 22.71875.84375 30.078125 43.667968 32.21875 101.988281 50.066406 167.917968 38.441406 7.570313-1.335937 14.902344-3.015624 22.019532-4.988281-120.351563 4.910157-133.015626-108.710937-105.886719-162.566406zm0 0" fill="#e9901b"/><path d="m334.175781 142.546875c4.289063-6.460937 4.039063-14.320313.410157-20.355469-77.757813 65.890625-116.003907-5.960937-164.675782 2.621094s-60.039062 89.183594-155.644531 53.859375c-1.34375 6.914063 1.113281 14.382813 7.351563 18.984375 43.667968 32.222656 101.988281 50.070312 167.917968 38.445312 65.925782-11.625 114.625-48.34375 144.640625-93.554687zm0 0" fill="#f7ef87"/><path d="m103.6875 172.742188c-20.042969 14.128906-46.070312 21.945312-89.417969 5.929687-1.347656 6.914063 1.109375 14.382813 7.347657 18.988281 43.667968 32.21875 101.988281 50.066406 167.917968 38.441406 7.570313-1.335937 14.902344-3.015624 22.019532-4.988281-59.667969 2.433594-92.863282-24.265625-107.867188-58.371093zm0 0" fill="#efd176"/><path d="m118.261719 158.480469c-2.398438-13.597657-18.183594-22.179688-35.261719-19.171875-17.074219 3.011718-28.976562 16.476562-26.578125 30.074218 2.398437 13.597657 18.183594 22.183594 35.261719 19.171876 17.074218-3.011719 28.976562-16.472657 26.578125-30.074219zm0 0" fill="#fff"/><path d="m291.78125 127.894531c-2.394531-13.597656-18.183594-22.183593-35.257812-19.171875-17.078126 3.007813-28.976563 16.472656-26.578126 30.074219 2.394532 13.597656 18.183594 22.179687 35.257813 19.171875 17.078125-3.011719 28.976563-16.476562 26.578125-30.074219zm0 0" fill="#fff"/><path d="m378.410156 264.066406h-27.496094v-14.785156c0-6.679688-5.433593-12.113281-12.113281-12.113281h-79.363281c-6.679688 0-12.113281 5.433593-12.113281 12.113281v14.785156h-27.496094v-14.785156c0-21.839844 17.769531-39.609375 39.609375-39.609375h79.363281c21.839844 0 39.609375 17.765625 39.609375 39.609375zm0 0" fill="#4e5660"/><path d="m400.320312 469.078125h-202.40625c-22.195312 0-40.191406-17.996094-40.191406-40.195313v-139.304687h282.792969v139.304687c0 22.199219-17.996094 40.195313-40.195313 40.195313zm0 0" fill="#a3defe"/><path d="m437.527344 370.582031-62.167969 22.355469c-11.089844 3.984375-22.78125 6.023438-34.566406 6.023438h-83.347657c-11.785156 0-23.476562-2.039063-34.566406-6.023438l-62.167968-22.355469c-14.714844-5.289062-24.53125-19.246093-24.53125-34.882812v-36.246094c0-14.199219 11.511718-25.710937 25.710937-25.710937h274.453125c14.199219 0 25.710938 11.511718 25.710938 25.710937v36.246094c0 15.636719-9.8125 29.59375-24.527344 34.882812zm0 0" fill="#8eafe2"/><path d="m266.644531 273.742188h-104.753906c-14.199219 0-25.710937 11.511718-25.710937 25.710937v36.246094c0 15.636719 9.8125 29.59375 24.53125 34.886719l62.167968 22.351562c11.089844 3.984375 22.78125 6.023438 34.566406 6.023438h35.988282c-21.957032-30.28125-38.589844-88.070313-26.789063-125.21875zm0 0" fill="#6a96d7"/><path d="m320.757812 370.988281h-43.277343c-13.640625 0-24.699219 11.058594-24.699219 24.699219v6.546875c0 13.640625 11.058594 24.699219 24.699219 24.699219h43.277343c13.640626 0 24.699219-11.058594 24.699219-24.699219v-6.546875c0-13.640625-11.058593-24.699219-24.699219-24.699219zm0 0" fill="#f7ef87"/><path d="m418.472656 492.371094-41.9375-41.941406c-7.414062-7.414063-7.414062-19.441407 0-26.855469l54.101563-54.101563c7.417969-7.417968 19.441406-7.417968 26.859375 0l41.9375 41.9375c7.417968 7.414063 7.417968 19.441406 0 26.855469l-54.101563 54.105469c-7.417969 7.414062-19.441406 7.414062-26.859375 0zm0 0" fill="#fcf2d0"/><path d="m423.085938 377.023438-46.550782 46.546874c-7.414062 7.417969-7.414062 19.441407 0 26.859376l41.9375 41.9375c7.417969 7.417968 19.441406 7.417968 26.859375 0l6.539063-6.535157c-23.40625-21.472656-32.6875-75.6875-28.785156-108.808593zm0 0" fill="#f6e3a3"/><path d="m479.574219 422.632812-33.304688-33.300781c-1.136719-1.136719-2.984375-1.136719-4.121093 0l-33.300782 33.300781c-1.136718 1.140626-1.136718 2.984376 0 4.125l33.300782 33.300782c1.136718 1.136718 2.984374 1.136718 4.121093 0l33.304688-33.300782c1.136719-1.140624 1.136719-2.984374 0-4.125zm0 0" fill="#89d47f"/><path d="m422.925781 408.554688-14.078125 14.078124c-1.136718 1.140626-1.136718 2.984376 0 4.125l21.960938 21.960938c-4.097656-12.769531-6.71875-26.789062-7.882813-40.164062zm0 0" fill="#5ec783"/><path d="m255.34375 500.703125c-32.988281 5.054687-66.558594 5.054687-99.546875 0-9.417969-1.441406-16.371094-9.539063-16.371094-19.066406v-47.46875c0-9.527344 6.953125-17.625 16.371094-19.066407 32.988281-5.054687 66.558594-5.054687 99.546875 0 9.414062 1.441407 16.367188 9.539063 16.367188 19.066407v47.46875c.003906 9.527343-6.949219 17.625-16.367188 19.066406zm0 0" fill="#fcf2d0"/><path d="m200.394531 411.359375c-14.914062.234375-29.816406 1.476563-44.597656 3.742187-9.417969 1.441407-16.371094 9.539063-16.371094 19.066407v47.46875c0 9.527343 6.953125 17.625 16.371094 19.066406 25.582031 3.917969 51.511719 4.785156 77.25 2.625-22.066406-13.519531-51.082031-60.382813-32.652344-91.96875zm0 0" fill="#f6e3a3"/><path d="m187.578125 441.117188v33.570312c0 7.152344 7.742187 11.621094 13.933594 8.046875l29.074219-16.785156c6.191406-3.578125 6.191406-12.515625 0-16.089844l-29.074219-16.785156c-6.191407-3.578125-13.933594.890625-13.933594 8.042969zm0 0" fill="#e26e7e"/><path d="m194.582031 432.117188c-3.871093 1-7.003906 4.453124-7.003906 9v33.570312c0 7.152344 7.742187 11.621094 13.933594 8.046875l7.707031-4.449219c-8.828125-13.683594-15.246094-30.445312-14.636719-46.167968zm0 0" fill="#d9495d"/><path d="m250.414062 250.460938h-33.675781c-6.167969 0-11.167969 5-11.167969 11.167968v12.113282h56.011719v-12.113282c0-6.167968-5-11.167968-11.167969-11.167968zm0 0" fill="#f7ef87"/><path d="m381.5 250.460938h-33.675781c-6.167969 0-11.167969 5-11.167969 11.167968v12.113282h56.011719v-12.113282c0-6.167968-5-11.167968-11.167969-11.167968zm0 0" fill="#f7ef87"/><path d="m504.738281 406.105469-41.9375-41.9375c-.660156-.664063-1.351562-1.28125-2.066406-1.859375 5.679687-7.613282 8.824219-16.882813 8.824219-26.609375v-36.246094c0-18.3125-14.898438-33.207031-33.210938-33.207031h-36.179687v-4.617188c0-8.910156-6.277344-16.367187-14.636719-18.21875-1.996094-15.960937-12-29.464844-25.859375-36.347656 5.734375-8.605469 5.917969-20.226562-.429687-29.140625-8.210938-11.527344-24.269532-14.230469-35.796876-6.019531-1.765624 1.253906-3.746093 2.496094-5.925781 3.71875 8.402344-8.988282 16.089844-18.664063 22.90625-28.925782 4.496094-6.773437 5.632813-15.097656 3.117188-22.832031-2.554688-7.847656-8.476563-14.007812-16.25-16.898437-7.898438-2.9375-14.984375-6.511719-21.554688-10.4375 5.253907-9.539063 8.5625-20.570313 9.851563-32.902344.425781-4.121094-2.5625-7.808594-6.683594-8.238281-4.132812-.429688-7.808594 2.5625-8.238281 6.683593-1.027344 9.855469-3.550781 18.621094-7.511719 26.167969-5.265625-3.761719-10.285156-7.660156-15.242188-11.515625-5.753906-4.476562-11.550781-8.976562-17.683593-13.21875 9.074219-14.503906 22.371093-27.34375 37.832031-36.519531.214844.859375.425781 1.726563.617188 2.601563.894531 4.042968 4.894531 6.597656 8.945312 5.699218 4.042969-.894531 6.59375-4.898437 5.699219-8.941406-.984375-4.453125-2.21875-8.757812-3.65625-12.839844-.015625-.042968-.03125-.089844-.046875-.136718-.078125-.214844-.148438-.4375-.226563-.652344-3.132812-8.648438-12-13.894532-21.089843-12.488282-11.152344 1.738282-27.617188 5.558594-42.71875 13.910157-13.632813 7.539062-23.683594 17.335937-29.980469 29.167969-16.164063-3.492188-35.546875-4.011719-60.015625.300781-24.460938 4.3125-42.5 11.429687-56.492188 20.242187-9.964844-8.964844-22.765625-14.734375-38.152344-17.15625-17.046874-2.679687-33.824218-.640625-44.898437 1.539063-9.023437 1.78125-15.5625 9.75-15.546875 18.949219.039062 25.480468 10.046875 58.09375 32.117188 77.488281-4.835938 5.945312-10.277344 11.734375-16.703126 17.203125-6.316406 5.371094-9.773437 13.1875-9.488281 21.433594.28125 8.128906 4.195313 15.5625 10.738281 20.390624 19.960938 14.722657 41.855469 25.804688 64.953126 33.09375-15.777344 4.140626-32.253907 5.0625-45.703126 2.179688-13.832031-2.960938-27.507812 5.882812-30.472656 19.71875-1.4375 6.703125-.175781 13.5625 3.546875 19.320312 3.726563 5.753907 9.46875 9.714844 16.171875 11.152344 8.59375 1.84375 17.847656 2.777344 27.507813 2.777344 16.867187 0 34.316406-2.824219 50.984375-8.191406 1.445312 7.914062 3.796875 15.199218 7.003906 21.765625-4.710938 3.265625-8.820312 7.242187-11.894531 11.636719-14.460938 20.652343-11.421875 37.371093-8.976563 50.800781.792969 4.375 1.542969 8.503906 1.625 12.371093.085938 4.09375 2.152344 7.953126 5.527344 10.3125 2.207031 1.546876 4.820312 2.347657 7.453125 2.347657 1.394531 0 2.789063-.222657 4.132813-.679688 3.660156-1.246093 7.796874-1.953125 12.175781-2.703125 8.644531-1.480468 18.929687-3.242187 29.023437-10.039062v29.203125c-10.828125 3.578125-18.296875 13.628906-18.296875 25.40625v29.214843c0 4.144532 3.355469 7.5 7.5 7.5s7.5-3.355468 7.5-7.5v-29.214843c0-5.863281 4.207031-10.765625 10.003907-11.652344 32.273437-4.941406 65.003906-4.945313 97.277343 0 .203125.03125.394531.078125.59375.117187.125.03125.25.050782.375.074219 3.449219.820313 6.234375 3.089844 7.761719 6.105469.058594.132812.125.265625.191406.394531.695313 1.511719 1.082032 3.191407 1.082032 4.960938v47.46875c0 5.863281-4.207032 10.765625-10.003907 11.652343-32.273437 4.941407-65.003906 4.941407-97.277343 0-1.996094-.308593-3.890626-1.121093-5.472657-2.363281-3.261719-2.550781-7.976562-1.976562-10.527343 1.28125-2.554688 3.261719-1.980469 7.976563 1.28125 10.53125 3.605468 2.820313 7.90625 4.683594 12.445312 5.375 16.894531 2.589844 33.902344 3.882813 50.914062 3.882813 17.007813 0 34.019532-1.292969 50.910157-3.882813 13.171875-2.015625 22.730469-13.152343 22.730469-26.476562v-5.058594h112.863281l21.09375 21.09375c5.003906 5.003906 11.65625 7.757813 18.734375 7.757813 7.074218 0 13.726562-2.753907 18.730468-7.757813l54.101563-54.101563c10.332031-10.328124 10.332031-27.136718.003906-37.464843zm-123.238281-148.144531c2.019531 0 3.667969 1.644531 3.667969 3.667968v4.613282h-41.011719v-4.613282c0-2.023437 1.644531-3.667968 3.667969-3.667968zm-11.21875-15h-12.933594c-2.636718-7.71875-9.949218-13.292969-18.546875-13.292969h-64.40625c-.003906 0-.011719 0-.015625 0h-14.941406c-8.601562 0-15.910156 5.574219-18.550781 13.292969h-12.929688c.90625-4.535157 2.777344-8.722657 5.382813-12.351563.039062-.054687.078125-.113281.121094-.167969 5.839843-8.035156 15.308593-13.269531 25.976562-13.269531h79.359375c15.542969 0 28.539063 11.097656 31.484375 25.789063zm-30.460938 1.828124c-6.292968 3.003907-10.664062 9.414063-10.664062 16.839844v4.613282h-41.769531c-.03125-6.914063-.945313-14.136719-2.761719-21.574219h54.175781c.347657 0 .691407.046875 1.019531.121093zm-81.402343 0c.328125-.074218.667969-.121093 1.019531-.121093h9.660156c.320313 1.113281.632813 2.226562.90625 3.339843 1.566406 6.347657 2.355469 12.453126 2.386719 18.234376h-3.308594v-4.613282c0-7.425781-4.371093-13.835937-10.664062-16.839844zm-45.347657 16.839844c0-2.023437 1.644532-3.667968 3.667969-3.667968h33.675781c2.023438 0 3.667969 1.644531 3.667969 3.667968v4.613282h-41.011719zm-.363281-18.21875c-8.359375 1.847656-14.636719 9.308594-14.636719 18.21875v4.613282h-36.179687c-18.3125 0-33.210937 14.898437-33.210937 33.210937v6.535156c-5.765626-8.351562-9.355469-18.773437-10.691407-31.175781-1.0625-9.878906-.574219-19.84375 1.40625-29.714844 9.976563 1.339844 20.089844 2.023438 30.292969 2.023438 13.597656 0 27.363281-1.203125 41.148438-3.632813 7.695312-1.359375 15.3125-3.097656 22.792968-5.179687-.398437 1.667968-.707031 3.371094-.921875 5.101562zm119.4375-59.289062c4.792969-3.410156 11.46875-2.289063 14.878907 2.5 3.410156 4.792968 2.289062 11.464844-2.503907 14.875-.402343.289062-.832031.585937-1.28125.890625-1.464843-.136719-2.941406-.214844-4.4375-.214844h-47.382812c17.785156-5.398437 31.46875-11.460937 40.726562-18.050781zm-43.949219-168.664063c-16.527343 10.277344-30.765624 24.28125-40.660156 40.0625-5.308594-2.972656-10.949218-5.664062-17.074218-7.910156 7.257812-11.550781 23.148437-26.222656 57.734374-32.152344zm-201.589843 57.515625c-4.984375 4.207032-9.367188 8.664063-13.339844 13.273438-14.695313-11.445313-32.863281-19.734375-51.90625-23.738282 34.527344-6.257812 54.480469 2.097657 65.246094 10.464844zm-70.640625 3.726563c17.6875 3.328125 34.597656 10.855469 48.097656 21.386719-4.308594 6.085937-8.214844 12.300781-12.089844 18.476562-3.328125 5.304688-6.707031 10.667969-10.355468 15.992188-12.195313-11.339844-23.289063-31.179688-25.652344-55.855469zm86.542968 191.785156c-16.078124 5.535156-33.023437 8.453125-49.339843 8.453125-8.605469 0-16.800781-.820312-24.363281-2.441406-2.785157-.597656-5.171876-2.246094-6.722657-4.636719-1.546875-2.390625-2.070312-5.242187-1.472656-8.027344 1.230469-5.75 6.917969-9.429687 12.664063-8.195312 21.328124 4.570312 47.882812 1.269531 70.839843-8.558594-1.351562 7.773437-1.890625 15.597656-1.605469 23.40625zm-76.4375-76.863281c-2.832031-2.089844-4.53125-5.3125-4.652343-8.835938-.125-3.644531 1.410156-7.101562 4.21875-9.492187 18.101562-15.402344 28.746093-32.355469 39.042969-48.757813 5.035156-8.023437 9.890624-15.753906 15.417968-22.96875.109375-.132812.210938-.261718.308594-.402344 6.027344-7.808593 12.863281-15.007812 21.613281-21.316406.269531-.167968.527344-.355468.78125-.554687 13.070313-9.230469 30.359375-16.503907 55.398438-20.917969 25.097656-4.425781 43.855469-3.480469 59.3125.746094.289062.09375.578125.171875.871093.230468 10.386719 2.945313 19.273438 7.386719 27.613282 12.675782.042968.027344.089844.054687.132812.085937 7.75 4.925781 15.027344 10.574219 22.578125 16.449219 15.28125 11.886719 31.082031 24.179688 53.363281 32.464844 3.453126 1.28125 6.078126 4.007812 7.207032 7.472656 1.09375 3.355469.601562 6.960938-1.347656 9.898438-17.265626 26.003906-40.449219 48.007812-67.113282 63.773437h-1.378906c-14.804688 0-28.03125 6.871094-36.671875 17.585937-11.136719 3.859376-22.738281 6.878907-34.535156 8.957032-58.238281 10.273437-115.824219-2.902344-162.160157-37.09375zm92.597657 183.191406c-3.910157.671875-7.929688 1.355469-11.890625 2.484375-.296875-4.109375-1.027344-8.125-1.734375-12.027344-2.246094-12.339843-4.367188-23.992187 6.503906-39.519531 1.960937-2.796875 4.570313-5.367188 7.59375-7.539062 2.839844 3.570312 6.015625 6.828124 9.542969 9.722656v7.765625c0 12.035156 4.890625 23.285156 13.054687 31.480469-7.351562 4.929687-15.039062 6.261718-23.070312 7.632812zm46.554687 31.441406v-26.078125l55.117188 19.816407c8.136718 2.925781 16.570312 4.855468 25.15625 5.796874.015625.136719.027344.28125.042968.417969-26.695312-3.199219-53.625-3.183593-80.316406.046875zm80.445313-15.539062c-6.90625-.863282-13.691407-2.480469-20.25-4.835938l-62.167969-22.351562c-11.703125-4.210938-19.566406-15.394532-19.566406-27.832032v-36.242187c0-10.042969 8.167968-18.210937 18.210937-18.210937h117.632813.019531.019531 156.78125c10.042969 0 18.210938 8.167968 18.210938 18.210937v36.242187c0 7.859376-3.082032 15.277344-8.546875 20.789063-.644531-.042969-1.292969-.078125-1.945313-.078125-7.074218 0-13.726562 2.757812-18.730468 7.761719l-4.421876 4.417969-48.089843 17.292968c-6.558594 2.355469-13.34375 3.972656-20.25 4.835938-2.398438-15.402344-15.75-27.226563-31.8125-27.226563h-43.28125c-16.0625 0-29.414063 11.824219-31.8125 27.226563zm31.8125 28.71875c-.945313 0-1.886719-.082032-2.8125-.234375-3.089844-4.605469-7.585938-8.199219-12.976563-10.164063-.921875-2.136718-1.410156-4.445312-1.410156-6.800781v-6.546875c0-9.484375 7.714844-17.199219 17.199219-17.199219h43.277343c9.484376 0 17.199219 7.714844 17.199219 17.199219v6.546875c0 9.480469-7.714843 17.199219-17.199219 17.199219zm1.734375 42.144531v-27.144531h41.542968c16.554688 0 30.222657-12.558594 32-28.648438 8.578126-.9375 17.007813-2.867187 25.136719-5.792968l18.132813-6.515626-24.796875 24.792969c-5 5.003907-7.757813 11.65625-7.757813 18.734375 0 7.074219 2.757813 13.730469 7.757813 18.730469l5.84375 5.84375zm214.914062-28.613281-54.101562 54.101562c-4.476563 4.480469-11.769532 4.480469-16.25 0l-23.292969-23.292968-18.648437-18.644532c-2.167969-2.171875-3.363282-5.058594-3.363282-8.125 0-3.070312 1.195313-5.957031 3.367188-8.128906l54.101562-54.101562c2.238282-2.238282 5.179688-3.359376 8.125-3.359376 2.941406 0 5.886719 1.121094 8.125 3.359376l41.9375 41.9375c2.171875 2.171874 3.367188 5.058593 3.367188 8.128906 0 3.070312-1.195313 5.953125-3.367188 8.125zm-262.996094-319.714844c.644532 3.640625 3.808594 6.199219 7.378907 6.199219.433593 0 .871093-.039063 1.3125-.117188 4.078125-.71875 6.800781-4.609375 6.082031-8.6875l-1.925781-10.917969c-.71875-4.082031-4.613281-6.808593-8.6875-6.085937-4.078125.71875-6.804688 4.609375-6.082031 8.6875zm-41.441406 62.996094c-2.09375 3.472656-5.574218 5.867187-9.554687 6.566406-3.980469.703125-8.066407-.355469-11.222657-2.902344-3.222656-2.601562-7.941406-2.101562-10.546874 1.121094-2.601563 3.222656-2.097657 7.945312 1.125 10.546875 5.203124 4.203125 11.644531 6.449219 18.222656 6.449219 1.671875 0 3.355468-.148438 5.027344-.441406 8.25-1.453126 15.464843-6.410157 19.796874-13.597657 2.136719-3.546875.992188-8.15625-2.554687-10.292969-3.546875-2.140624-8.15625-.996093-10.292969 2.550782zm-83.191406-52.28125c-.71875-4.078125-4.609375-6.804688-8.6875-6.082032-4.082031.71875-6.804688 4.609376-6.085938 8.6875l1.925782 10.921876c.644531 3.636718 3.808594 6.195312 7.378906 6.195312.433594 0 .871094-.035156 1.3125-.113281 4.078125-.71875 6.800781-4.609375 6.082031-8.6875zm216.660156 274.996094c0-4.144532-3.355468-7.5-7.5-7.5h-33.082031c-4.144531 0-7.5 3.355468-7.5 7.5 0 4.144531 3.355469 7.5 7.5 7.5h33.082031c4.144532 0 7.5-3.355469 7.5-7.5zm-166.140625-233.507813 14.292969 3.558594c4.253906 1.058593 8.761719.265625 12.398438-2.1875l12.214843-8.230469c4.402344-2.964844 5.046875-9.195312 1.34375-13-2.742187-2.816406-6.410156-4.546875-10.328125-4.867188-9.460937-.773437-18.964844.902344-27.589844 4.863282-3.574218 1.644531-6.429687 4.523437-8.042968 8.109375-2.175782 4.839843.558594 10.472656 5.710937 11.753906zm0 0"/></svg>