<svg height="512pt" viewBox="0 -85 512 512" width="512pt" xmlns="http://www.w3.org/2000/svg"><path d="m462.066406 335.421875h-412.132812c-23.4375 0-42.433594-18.996094-42.433594-42.433594v-243.054687c0-23.4375 18.996094-42.433594 42.433594-42.433594h412.132812c23.4375 0 42.433594 18.996094 42.433594 42.433594v243.054687c0 23.4375-18.996094 42.433594-42.433594 42.433594zm0 0" fill="#fcf2d0"/><path d="m49.933594 7.5c-23.4375 0-42.433594 18.996094-42.433594 42.433594v243.054687c0 23.4375 18.996094 42.433594 42.433594 42.433594h173.96875c-75.015625-62.414063-81.1875-190.804687-51.410156-327.921875zm0 0" fill="#f6e3a3"/><path d="m504.5 62.425781h-497v-12.492187c0-23.433594 18.996094-42.433594 42.433594-42.433594h412.132812c23.4375 0 42.433594 19 42.433594 42.433594zm0 0" fill="#8eafe2"/><path d="m49.933594 7.5c-23.4375 0-42.433594 18.996094-42.433594 42.433594v12.492187h154.976562c2.628907-18.054687 5.996094-36.410156 10.015626-54.925781zm0 0" fill="#6a96d7"/><path d="m74.804688 31.210938c-2.074219-5.011719-7.816407-7.386719-12.824219-5.3125-5.007813 2.074218-7.386719 7.816406-5.3125 12.824218 2.074219 5.007813 7.816406 7.386719 12.824219 5.3125 5.007812-2.074218 7.386718-7.816406 5.3125-12.824218zm0 0" fill="#eea849"/><path d="m156.332031 32.695312c-1.246093-5.273437-6.53125-8.542968-11.804687-7.296874-5.277344 1.246093-8.542969 6.53125-7.296875 11.808593 1.246093 5.273438 6.53125 8.542969 11.804687 7.296875 5.277344-1.246094 8.542969-6.53125 7.296875-11.808594zm0 0" fill="#89d47f"/><path d="m108.511719 25.421875c-5.273438-1.246094-10.5625 2.019531-11.804688 7.296875-1.246093 5.273438 2.019531 10.5625 7.292969 11.808594 5.277344 1.246094 10.5625-2.023438 11.808594-7.296875 1.246094-5.277344-2.019532-10.5625-7.296875-11.808594zm0 0" fill="#f7ef87"/><path d="m252.585938 304.480469c-9.699219 0-17.6875-7.730469-17.945313-17.484375-.257813-9.914063 7.566406-18.164063 17.480469-18.425782 21.644531-.566406 38.121094-3.578124 65.304687-11.925781 9.480469-2.910156 19.527344 2.414063 22.441407 11.894531 2.910156 9.480469-2.414063 19.527344-11.894532 22.4375-30.3125 9.308594-49.910156 12.839844-74.90625 13.5-.160156.003907-.324218.003907-.480468.003907zm0 0" fill="#e9901b"/><path d="m133.597656 304.480469c-.160156 0-.320312 0-.480468-.003907-24.996094-.65625-44.59375-4.191406-74.902344-13.5-9.484375-2.910156-14.808594-12.957031-11.898438-22.4375 2.914063-9.480468 12.957032-14.808593 22.441406-11.894531 27.183594 8.347657 43.664063 11.359375 65.304688 11.925781 9.914062.261719 17.738281 8.511719 17.480469 18.425782-.257813 9.753906-8.246094 17.484375-17.945313 17.484375zm0 0" fill="#eea849"/><path d="m193.09375 223.9375c-38.042969 0-77.683594 39.921875-80.988281 89.054688-.550781 8.195312 0 15.65625 1.492187 22.429687h158.988282c1.496093-6.773437 2.046874-14.234375 1.496093-22.429687-3.308593-49.132813-42.949219-89.054688-80.988281-89.054688zm0 0" fill="#eea849"/><path d="m164.5 231.125c-27.195312 13.628906-49.925781 45.179688-52.398438 81.867188-.550781 8.195312.003907 15.65625 1.496094 22.429687h110.300782c-30.332032-25.238281-49.402344-61.269531-59.398438-104.296875zm0 0" fill="#e9901b"/><path d="m71.828125 178.488281c-21.472656-20.066406-25.917969-54.730469-21.691406-78.898437.925781-5.304688 5.488281-9.222656 10.871093-9.328125 26.449219-.535157 60.824219 6.042969 75.308594 34.242187zm0 0" fill="#4e5660"/><path d="m50.015625 100.320312c-4.007813 24.132813.554687 58.300782 21.808594 78.167969l40.277343-33.714843c-12.910156-19.761719-35.386718-36.71875-62.085937-44.453126zm0 0" fill="#f2d1a5"/><path d="m314.355469 178.488281c21.472656-20.066406 25.917969-54.730469 21.691406-78.898437-.925781-5.304688-5.488281-9.222656-10.871094-9.328125-26.449219-.535157-60.824219 6.042969-75.308593 34.242187zm0 0" fill="#4e5660"/><path d="m336.167969 100.320312c4.007812 24.132813-.554688 58.300782-21.8125 78.167969l-40.273438-33.714843c12.910157-19.761719 35.390625-36.71875 62.085938-44.453126zm0 0" fill="#f2d1a5"/><path d="m193.09375 109.082031c91.546875 0 93.511719 55.503907 147.597656 87.226563 10.230469 5.996094 12.375 19.882812 4.203125 28.472656-35.785156 37.609375-87.761719 64.109375-151.800781 64.109375s-116.019531-26.5-151.804688-64.109375c-8.171874-8.589844-6.023437-22.476562 4.203126-28.472656 54.085937-31.722656 56.050781-87.226563 147.601562-87.226563zm0 0" fill="#eea849"/><path d="m157.074219 112.652344c-57.320313 12.753906-65.714844 56.753906-111.582031 83.65625-10.226563 5.996094-12.375 19.882812-4.203126 28.472656 34.441407 36.195312 83.886719 62.089844 144.640626 63.984375-25.457032-46.304687-33.441407-107.859375-28.855469-176.113281zm0 0" fill="#e9901b"/><path d="m344.894531 224.78125c5.113281-5.371094 6.183594-12.816406 3.769531-19.109375-84.199218 49.160156-108.296874-24.882813-155.570312-24.882813-47.277344 0-71.375 74.042969-155.574219 24.882813-2.414062 6.292969-1.339843 13.734375 3.769531 19.109375 35.785157 37.609375 87.761719 64.109375 151.804688 64.109375 64.039062 0 116.015625-26.5 151.800781-64.109375zm0 0" fill="#f7ef87"/><path d="m158.164062 193.140625c-29.785156 18.695313-59.222656 48.394531-120.644531 12.53125-2.414062 6.292969-1.339843 13.734375 3.769531 19.109375 34.441407 36.195312 83.886719 62.089844 144.640626 63.984375-14.949219-27.191406-23.875-59.644531-27.765626-95.625zm0 0" fill="#efd176"/><path d="m138.851562 203.925781c0-13.210937-13.445312-23.917969-30.035156-23.917969-16.585937 0-30.035156 10.707032-30.035156 23.917969 0 13.210938 13.449219 23.917969 30.035156 23.917969 16.589844 0 30.035156-10.707031 30.035156-23.917969zm0 0" fill="#fff"/><path d="m307.402344 203.925781c0-13.210937-13.449219-23.917969-30.035156-23.917969-16.589844 0-30.035157 10.707032-30.035157 23.917969 0 13.210938 13.445313 23.917969 30.035157 23.917969 16.585937 0 30.035156-10.707031 30.035156-23.917969zm0 0" fill="#fff"/><path d="m458.078125 158.953125h-55.046875c-6.347656 0-11.496094-5.148437-11.496094-11.5v-14.191406c0-6.347657 5.148438-11.496094 11.496094-11.496094h55.046875c6.347656 0 11.496094 5.148437 11.496094 11.496094v14.191406c0 6.351563-5.144531 11.5-11.496094 11.5zm0 0" fill="#89d47f"/><path d="m453.976562 259.460938-12.214843 3.75c-2.953125.90625-5.265625 3.21875-6.171875 6.171874l-3.75 12.214844c-2.65625 8.667969-14.871094 8.8125-17.738282.214844l-14.15625-42.464844c-2.425781-7.28125 4.5-14.207031 11.78125-11.78125l42.464844 14.152344c8.597656 2.871094 8.453125 15.085938-.214844 17.742188zm0 0" fill="#4e5660"/><path d="m477.074219 196.160156c0-4.140625-3.355469-7.5-7.5-7.5h-78.039063c-4.140625 0-7.5 3.359375-7.5 7.5s3.359375 7.5 7.5 7.5h78.039063c4.144531 0 7.5-3.359375 7.5-7.5zm-20.898438 70.472656c7.128907-2.1875 11.792969-8.417968 11.882813-15.871093.089844-7.457031-4.421875-13.796875-11.496094-16.15625l-42.464844-14.152344c-6.082031-2.027344-12.671875-.46875-17.207031 4.0625-4.53125 4.53125-6.089844 11.125-4.0625 17.207031l14.15625 42.460938c2.332031 7.003906 8.574219 11.496094 15.933594 11.496094h.21875c7.457031-.089844 13.6875-4.753907 15.871093-11.878907l1.542969-5.019531 8.859375 8.859375c1.460938 1.464844 3.382813 2.199219 5.300782 2.199219 1.921874 0 3.839843-.734375 5.304687-2.199219 2.929687-2.929687 2.929687-7.675781 0-10.605469l-8.863281-8.859375zm-4.398437-14.339843-12.21875 3.746093c-5.335938 1.640626-9.5 5.804688-11.140625 11.144532l-3.75 12.214844c-.09375.3125-.386719 1.265624-1.710938 1.28125-1.367187.007812-1.640625-.929688-1.742187-1.238282l-14.15625-42.464844c-.292969-.878906.078125-1.492187.4375-1.855468.273437-.269532.683594-.542969 1.238281-.542969.191406 0 .398437.03125.621094.105469l42.460937 14.152344c.3125.105468 1.257813.417968 1.242188 1.742187s-.96875 1.617187-1.28125 1.714844zm-245.285156-53.683594c-8.785157-2.300781-18.015626-2.300781-26.800782 0-3.636718.953125-6.804687 3.191406-8.921875 6.300781-2.855469 4.199219-1.214843 9.960938 3.425781 12.023438l12.875 5.726562c3.832032 1.703125 8.210938 1.703125 12.046876 0l12.871093-5.726562c4.640625-2.0625 6.28125-7.824219 3.425781-12.023438-2.113281-3.109375-5.285156-5.347656-8.921874-6.300781zm-77.695313-42.394531c-12.28125 0-22.273437 9.992187-22.273437 22.273437 0 4.140625 3.359374 7.5 7.5 7.5 4.140624 0 7.5-3.359375 7.5-7.5 0-4.011719 3.261718-7.273437 7.273437-7.273437 4.007813 0 7.269531 3.261718 7.269531 7.273437 0 4.140625 3.359375 7.5 7.5 7.5 4.144532 0 7.5-3.359375 7.5-7.5 0-12.28125-9.992187-22.273437-22.269531-22.273437zm84.722656 75.375c-3.125-2.722656-7.863281-2.398438-10.582031.726562-2.488281 2.851563-6.074219 4.488282-9.84375 4.488282-3.773438 0-7.359375-1.636719-9.847656-4.488282-2.71875-3.125-7.457032-3.449218-10.582032-.726562-3.121093 2.71875-3.445312 7.457031-.726562 10.582031 5.335938 6.121094 13.046875 9.632813 21.15625 9.632813 8.105469 0 15.816406-3.511719 21.148438-9.632813 2.722656-3.125 2.398437-7.863281-.722657-10.582031zm43.871094-75.375c-12.28125 0-22.273437 9.992187-22.273437 22.273437 0 4.140625 3.359374 7.5 7.5 7.5 4.140624 0 7.5-3.359375 7.5-7.5 0-4.011719 3.261718-7.273437 7.273437-7.273437 4.007813 0 7.269531 3.261718 7.269531 7.273437 0 4.140625 3.359375 7.5 7.5 7.5 4.144532 0 7.5-3.359375 7.5-7.5 0-12.28125-9.992187-22.273437-22.269531-22.273437zm204.675781-156.214844h-18.703125c-4.140625 0-7.5 3.359375-7.5 7.5s3.359375 7.5 7.5 7.5h18.703125c19.261719 0 34.933594 15.671875 34.933594 34.933594v4.992187h-482v-4.992187c0-19.261719 15.671875-34.933594 34.933594-34.933594h358.234375c4.140625 0 7.5-3.359375 7.5-7.5s-3.359375-7.5-7.5-7.5h-358.234375c-27.535156 0-49.933594 22.402344-49.933594 49.933594v243.054687c0 19.351563 11.34375 37.132813 28.894531 45.296875 1.023438.476563 2.101563.699219 3.160157.699219 2.828124 0 5.535156-1.605469 6.804687-4.335937 1.746094-3.757813.117187-8.21875-3.636719-9.964844-12.285156-5.710938-20.222656-18.15625-20.222656-31.695313v-223.0625h482v223.0625c0 19.265625-15.671875 34.933594-34.933594 34.933594h-180.714844c.496094-4.953125.570313-10.113281.210938-15.433594-.058594-.925781-.136719-1.851562-.222656-2.773437 14.425781-2.042969 29.515625-5.632813 48.832031-11.566406 13.421875-4.121094 20.984375-18.390626 16.863281-31.808594-1.996094-6.5-6.402344-11.835938-12.410156-15.019532-1.695312-.898437-3.460938-1.589843-5.269531-2.082031 7.355469-5.914062 14.367187-12.34375 20.972656-19.285156 5.429687-5.707031 7.914063-13.457031 6.816406-21.261719-1.117187-7.917968-5.730469-14.789062-12.660156-18.851562-6.839844-4.011719-12.835937-8.476563-18.304687-13.1875 17.46875-22.015625 21.449218-54.355469 17.257812-78.351563-1.542969-8.824219-9.160156-15.359375-18.109375-15.539062-43.773437-.890625-65.496094 15.578125-75.742187 28.4375-14.640626-5.9375-32.792969-9.617188-56.492188-9.617188-23.703125 0-41.855469 3.679688-56.496094 9.617188-10.25-12.859375-31.984375-29.320313-75.742187-28.4375-8.949219.179687-16.566407 6.714843-18.109375 15.535156-4.191406 24-.210938 56.339844 17.257812 78.351563-5.46875 4.710937-11.464844 9.179687-18.304687 13.191406-6.929688 4.0625-11.542969 10.933594-12.660157 18.851562-1.097656 7.804688 1.386719 15.550782 6.816407 21.257813 6.609375 6.945312 13.617187 13.375 20.972656 19.285156-1.808594.496094-3.574219 1.183594-5.269531 2.082031-6.003906 3.1875-10.414063 8.519532-12.410156 15.019532-4.121094 13.417968 3.445312 27.6875 16.863281 31.808593 19.320312 5.933594 34.410156 9.523438 48.835937 11.566407-.085937.925781-.164062 1.851562-.226562 2.777343-.359375 5.316407-.28125 10.476563.214844 15.433594h-37.402344c-4.144532 0-7.5 3.355469-7.5 7.5 0 4.140625 3.355468 7.5 7.5 7.5h46.140625.015625.027344 158.949218.027344.015625 189.457031c27.535156 0 49.933594-22.402344 49.933594-49.9375v-243.050781c0-27.53125-22.398438-49.933594-49.933594-49.933594zm-132.234375 110.359375c1.730469 23.179687-5.234375 43.320313-14.625 55.914063-4.222656-4.320313-8.203125-8.714844-12.140625-13.066407-4.609375-5.097656-9.25-10.230469-14.238281-15.179687 10.820313-11.929688 25.214844-21.636719 41.003906-27.667969zm-8.804687-12.628906c-16.609375 6.929687-31.722656 17.460937-43.316406 30.230469-4.359376-3.546876-9.058594-6.890626-14.242188-9.929688 8.644531-9.394531 25.507812-20.109375 57.558594-20.300781zm-198.316406 20.300781c-5.183594 3.039062-9.878907 6.382812-14.238282 9.929688-11.59375-12.765626-26.703125-23.300782-43.3125-30.230469 32.015625.207031 48.898438 10.910156 57.550782 20.300781zm-66.359376-7.671875c15.789063 6.03125 30.183594 15.738281 41.003907 27.667969-4.988281 4.949218-9.628907 10.082031-14.238281 15.179687-3.933594 4.351563-7.917969 8.746094-12.140626 13.066407-9.390624-12.59375-16.355468-32.734376-14.625-55.914063zm50.929688 184.554687c-13.773438-1.917968-27.914062-5.285156-46.867188-11.105468-5.511718-1.691406-8.617187-7.554688-6.925781-13.066406.820313-2.671876 2.628907-4.863282 5.097657-6.171876 2.46875-1.304687 5.296874-1.574218 7.96875-.753906 7.785156 2.390625 14.574218 4.300782 20.726562 5.839844 7.835938 4.316406 15.941406 8.128906 24.277344 11.429688-1.738282 4.535156-3.167969 9.152343-4.277344 13.828124zm158.972656 33.007813h-146.320312c-.5625-4.570313-.6875-9.394531-.347656-14.425781.628906-9.355469 2.703124-18.535156 6.132812-27.386719 21.355469 6.761719 44.003906 10.28125 67.371094 10.28125 23.367187 0 46.019531-3.519531 67.375-10.28125 3.429687 8.851563 5.503906 18.03125 6.132812 27.386719.339844 5.03125.214844 9.859375-.34375 14.425781zm-73.160156-46.53125c-56.480469 0-108.460938-21.941406-146.371094-61.78125-2.285156-2.402344-3.289062-5.539063-2.828125-8.828125.472657-3.355469 2.4375-6.269531 5.390625-8.003906 19.65625-11.527344 32.519532-25.753906 44.957032-39.511719 6.144531-6.792969 12.0625-13.328125 18.554687-19.257813.015625-.015624.03125-.027343.042969-.042968 7.050781-6.429688 14.777344-12.136719 24.207031-16.65625.113281-.050782.234375-.101563.347656-.160156 13.839844-6.558594 31.332031-10.570313 55.695313-10.570313 24.363281 0 41.855468 4.011719 55.695312 10.570313.117188.058593.238282.113281.359375.164062 9.425781 4.515625 17.152344 10.222656 24.199219 16.65625.011719.011719.023438.023438.039062.035156 6.492188 5.929688 12.414063 12.46875 18.558594 19.261719 12.4375 13.757813 25.300782 27.980469 44.957032 39.511719 2.953124 1.730468 4.917968 4.648437 5.390624 8.003906.464844 3.289062-.542968 6.421875-2.828124 8.828125-37.910157 39.839844-89.890626 61.78125-146.367188 61.78125zm81.535156-.308594c8.332032-3.296875 16.4375-7.109375 24.273438-11.425781 6.15625-1.542969 12.941406-3.453125 20.726562-5.84375 2.671875-.820312 5.5-.550781 7.96875.757812 2.46875 1.308594 4.277344 3.5 5.097656 6.167969 1.695313 5.515625-1.414062 11.375-6.925781 13.070313-18.953125 5.820312-33.09375 9.1875-46.867187 11.101562-1.109375-4.671875-2.539063-9.289062-4.273438-13.828125zm0 0"/></svg>