<svg height="512pt" viewBox="-43 0 512 512.00216" width="512pt" xmlns="http://www.w3.org/2000/svg"><path d="m377.144531 222.144531h-175.476562c-7.253907 0-13.410157-5.328125-14.449219-12.507812l-2.105469-14.546875c-1.3125-9.074219-9.089843-15.808594-18.257812-15.808594h-74.8125c-9.167969 0-16.945313 6.734375-18.257813 15.808594l-2.105468 14.546875c-1.039063 7.179687-7.195313 12.507812-14.449219 12.507812h-12.167969c-11.449219 0-20.734375 9.285157-20.734375 20.734375v227.003906c0 11.449219 9.285156 20.734376 20.734375 20.734376h332.082031c11.449219 0 20.734375-9.285157 20.734375-20.734376v-227.003906c0-11.449218-9.28125-20.734375-20.734375-20.734375zm0 0" fill="#efd176"/><path d="m98.546875 345.25c-1.191406 3.507812 1.40625 7.21875 5.113281 7.296875 17.246094.363281 34.660156 11.328125 59.519532-6.078125 14.621093-10.234375 23.789062-33.632812 12.484374-49.777344-11.304687-16.144531-36.425781-15.53125-51.046874-5.296875-24.859376 17.410157-20.511719 37.523438-26.070313 53.855469zm0 0" fill="#4e5660"/><g fill="#e9901b"><path d="m172.820312 402.894531c-.78125 0-1.570312-.046875-2.367187-.144531-10.714844-1.292969-18.351563-11.03125-17.054687-21.746094 2.5-20.703125 5.964843-44.972656 15.464843-71.039062 3.695313-10.140625 14.910157-15.363282 25.050781-11.667969 10.140626 3.695313 15.363282 14.910156 11.667969 25.050781-8.078125 22.164063-11.144531 43.804688-13.382812 62.347656-1.199219 9.917969-9.632813 17.199219-19.378907 17.199219zm0 0"/><path d="m242.941406 415.261719c-1.464844 0-2.957031-.167969-4.449218-.515625-10.511719-2.449219-17.046876-12.953125-14.597657-23.464844 4.234375-18.1875 8.753907-39.570312 8.746094-63.164062-.003906-10.792969 8.742187-19.546876 19.535156-19.550782h.007813c10.789062 0 19.539062 8.746094 19.542968 19.535156.007813 27.746094-5.035156 51.738282-9.769531 72.046876-2.097656 9.019531-10.132812 15.113281-19.015625 15.113281zm0 0"/><path d="m118.488281 253.328125c-22.539062 0-43.464843-6.148437-60.550781-17.804687-8.917969-6.082032-11.214844-18.242188-5.132812-27.15625 6.082031-8.917969 18.242187-11.214844 27.15625-5.132813 21.636718 14.761719 54.382812 14.773437 81.480468.027344 9.484375-5.160157 21.347656-1.65625 26.507813 7.828125 5.15625 9.476562 1.65625 21.34375-7.824219 26.503906-18.683594 10.164062-39.738281 15.605469-60.886719 15.730469-.25.003906-.5.003906-.75.003906zm0 0"/><path d="m366.054688 288.414062c-31.953126 0-59.835938-12.203124-79.265626-23.949218-9.238281-5.582032-12.199218-17.597656-6.613281-26.832032 5.582031-9.238281 17.597657-12.199218 26.832031-6.617187 18.722657 11.316406 47.488282 23.296875 78.195313 16.113281 10.515625-2.457031 21.023437 4.066406 23.480469 14.574219 2.460937 10.507813-4.0625 21.019531-14.574219 23.480469-9.609375 2.25-18.996094 3.230468-28.054687 3.230468zm0 0"/></g><path d="m216.617188 339.882812c51.332031 9.050782 92.277343-8.984374 97.835937-60.5625 5.589844-51.886718-28.4375-100.851562-68.140625-107.851562s-88.425781 27.371094-100.917969 78.042969c-12.417969 50.367187 19.890625 81.320312 71.222657 90.371093zm0 0" fill="#eea849"/><path d="m128.113281 101.714844c-18.71875-24.894532-16.976562-61.890625-8.121093-86.339844 1.941406-5.363281 7.425781-8.613281 13.0625-7.734375 27.703124 4.3125 62.371093 17.5 72.300781 49.597656zm0 0" fill="#4e5660"/><path d="m119.734375 16.121094c-8.625 24.445312-10.152344 60.949218 8.378906 85.59375l48.242188-27.777344c-9.84375-23-30.183594-44.835938-56.621094-57.816406zm0 0" fill="#f2d1a5"/><path d="m381.242188 146.351562c26.101562-16.992187 37.121093-52.355468 37.160156-78.359374.007812-5.703126-4.03125-10.632813-9.628906-11.738282-27.507813-5.421875-64.597657-4.882812-84.90625 21.878906zm0 0" fill="#4e5660"/><path d="m418.390625 68.78125c-.257813 25.921875-11.304687 60.746094-37.148437 77.566406l-35.832032-42.601562c17.113282-18.246094 43.695313-31.808594 72.980469-34.964844zm0 0" fill="#f2d1a5"/><path d="m267.449219 51.589844c95.550781 16.847656 87.386719 75.140625 138 118.203125 9.570312 8.144531 9.257812 23.03125-.855469 30.492187-44.269531 32.667969-103.394531 50.761719-170.234375 38.976563-66.839844-11.785157-116.210937-49.011719-146.640625-94.847657-6.949219-10.46875-2.152344-24.566406 9.625-28.945312 62.289062-23.160156 74.554688-80.726562 170.105469-63.878906zm0 0" fill="#eea849"/><path d="m212.5625 50.558594c-49.085938 9.136718-67.4375 47.144531-115.21875 64.910156-11.777344 4.378906-16.574219 18.476562-9.625 28.941406 30.429688 45.839844 79.800781 83.066406 146.640625 94.851563 7.675781 1.351562 15.242187 2.292969 22.707031 2.882812-116.359375-37.054687-89.027344-149.6875-44.503906-191.585937zm0 0" fill="#e9901b"/><path d="m404.59375 200.285156c6.324219-4.667968 8.816406-12.238281 7.453125-19.25-96.925781 35.8125-108.449219-45.902344-157.792969-54.601562-49.34375-8.699219-88.121094 64.144531-166.953125-2.65625-3.679687 6.121094-3.929687 14.085937.417969 20.636718 30.429688 45.835938 79.800781 83.0625 146.640625 94.847657 66.839844 11.785156 125.964844-6.3125 170.234375-38.976563zm0 0" fill="#f7ef87"/><path d="m174.542969 149.132812c-23.992188 6.511719-51.5 4.933594-87.242188-25.355468-3.679687 6.121094-3.929687 14.085937.417969 20.636718 30.429688 45.835938 79.800781 83.0625 146.640625 94.847657 7.675781 1.351562 15.242187 2.292969 22.703125 2.882812-57.683594-18.371093-80.050781-55.316406-82.519531-93.011719zm0 0" fill="#efd176"/><path d="m166.425781 110.105469c-17.3125-3.054688-33.316406 5.648437-35.746093 19.4375-2.429688 13.785156 9.632812 27.4375 26.945312 30.488281s33.320312-5.648438 35.75-19.4375c2.429688-13.785156-9.636719-27.4375-26.949219-30.488281zm0 0" fill="#fff"/><path d="m342.335938 141.121094c-17.3125-3.050782-33.316407 5.652344-35.75 19.4375-2.429688 13.789062 9.636718 27.441406 26.949218 30.492187s33.316406-5.652343 35.746094-19.4375c2.429688-13.789062-9.632812-27.4375-26.945312-30.492187zm0 0" fill="#fff"/><path d="m380.148438 504.5h-338.085938c-10.066406 0-18.488281-7.632812-19.480469-17.648438l-15.011719-151.695312c-.875-8.851562 6.078126-16.527344 14.972657-16.527344h377.121093c8.894532 0 15.847657 7.675782 14.972657 16.527344l-15.011719 151.695312c-.988281 10.015626-9.414062 17.648438-19.476562 17.648438zm0 0" fill="#f7ef87"/><path d="m20.664062 467.480469 1.917969 19.371093c.992188 10.015626 9.414063 17.648438 19.480469 17.648438h338.085938c10.0625 0 18.488281-7.632812 19.476562-17.648438l1.917969-19.371093zm0 0" fill="#efd176"/><path d="m322.773438 145.351562c.441406.078126.878906.117188 1.3125.117188 3.570312 0 6.734374-2.5625 7.375-6.199219l1.953124-11.070312c.71875-4.078125-2.003906-7.96875-6.082031-8.6875-4.085937-.722657-7.96875 2.003906-8.691406 6.082031l-1.949219 11.070312c-.722656 4.078126 2.003906 7.96875 6.082032 8.6875zm82.605468 166.519532v-23.695313c2.871094-2.050781 5.335938-4.667969 7.253906-7.757812 3.808594-6.136719 5-13.390625 3.355469-20.421875-1.554687-6.640625-5.453125-12.128906-10.609375-15.816406v-1.300782c0-10.515625-5.785156-19.703125-14.332031-24.5625 6.152344-3.691406 12.160156-7.6875 18-11.996094 6.609375-4.875 10.5625-12.378906 10.84375-20.589843.289063-8.328125-3.199219-16.21875-9.582031-21.648438-6.546875-5.570312-12.085938-11.46875-17.007813-17.53125 22.402344-19.632812 32.5625-52.707031 32.601563-78.546875.015625-9.277344-6.578125-17.3125-15.679688-19.105468-11.21875-2.210938-28.21875-4.28125-45.480468-1.5625-15.613282 2.460937-28.59375 8.3125-38.6875 17.421874-14.1875-8.945312-32.480469-16.175781-57.300782-20.550781-24.828125-4.378906-44.484375-3.839843-60.875-.289062-6.375-12.007813-16.566406-21.949219-30.398437-29.601563-15.289063-8.457031-31.972657-12.328125-43.269531-14.085937-9.15625-1.421875-18.109376 3.867187-21.269532 12.589843-.078125.214844-.144531.4375-.222656.652344-.027344.070313-.046875.144532-.074219.214844-1.640625 4.671875-3.019531 9.628906-4.074219 14.769531-.832031 4.058594 1.78125 8.023438 5.839844 8.855469 4.054688.832031 8.019532-1.78125 8.855469-5.839844.304687-1.480468.644531-2.9375 1.007813-4.375 15.765624 9.332032 29.324218 22.425782 38.554687 37.210938-6.242187 4.316406-12.148437 8.898437-18.003906 13.453125-5.054688 3.933593-10.175781 7.910156-15.546875 11.746093-3.804688-7.21875-6.320313-15.539062-7.480469-24.855468-.515625-4.109375-4.261719-7.023438-8.371094-6.511719-4.113281.511719-7.027343 4.261719-6.515625 8.371094 1.457032 11.675781 4.746094 22.160156 9.785156 31.28125-6.691406 4.007812-13.910156 7.652343-21.960937 10.648437-7.851563 2.917969-13.832031 9.136719-16.410156 17.0625-2.539063 7.816406-1.390625 16.21875 3.148437 23.058594 5.425782 8.175781 11.328125 15.921875 17.660156 23.222656h-7.089843c-12.269531 0-22.894531 8.78125-25.378907 20.664063-7.824218.671875-15.292968 4.714843-20.054687 11.695312-2.21875 3.253907-3.667969 6.871094-4.316406 10.640625-14.273438 1.398438-25.464844 13.464844-25.464844 28.097656v68.992188c-4.191406 1.101562-8.03125 3.402344-10.988281 6.667969-4.269532 4.707031-6.355469 11.035156-5.730469 17.355469l15.011719 151.695312c1.375 13.914062 12.957031 24.410156 26.941406 24.410156h292.148438c4.140624 0 7.5-3.359375 7.5-7.5 0-4.144531-3.359376-7.5-7.5-7.5h-292.148438c-6.238281 0-11.402344-4.683594-12.015625-10.886718l-15.011719-151.695313c-.210937-2.148437.46875-4.210937 1.917969-5.808594 1.449219-1.601562 3.433594-2.480469 5.589844-2.480469h81.808593.027344.023438 295.261718c2.160157 0 4.144532.878907 5.59375 2.480469 1.445313 1.597657 2.128907 3.660157 1.914063 5.808594l-15.007813 151.695313c-.617187 6.203124-5.78125 10.886718-12.015624 10.886718h-10.761719c-4.140625 0-7.5 3.355469-7.5 7.5 0 4.140625 3.359375 7.5 7.5 7.5h10.761719c13.980468 0 25.5625-10.496094 26.941406-24.410156l15.007812-151.695312c.625-6.320313-1.460937-12.648438-5.726562-17.355469-2.957032-3.273438-6.796875-5.570313-10.992188-6.671875zm5.066406-234.34375c-2.375 25.167968-13.707031 45.390625-26.144531 56.910156-3.726562-5.429688-7.171875-10.902344-10.566406-16.3125-3.945313-6.285156-7.921875-12.617188-12.3125-18.804688 13.746094-10.75 30.988281-18.421874 49.023437-21.792968zm-43.371093-15.375c14.171875-2.234375 28.367187-.726563 38.351562 1.101562-19.527343 4.019532-38.167969 12.492188-53.207031 24.226563-4.070312-4.734375-8.566406-9.304688-13.695312-13.617188 7.585937-5.980469 17.144531-9.914062 28.550781-11.710937zm-233.242188-46.777344c35.574219 5.980469 51.816407 21.042969 59.191407 32.84375-6.285157 2.296875-12.066407 5.050781-17.503907 8.105469-10.113281-16.164063-24.722656-30.492188-41.6875-40.949219zm-39.863281 124.886719c-1.992188-3-2.496094-6.6875-1.382812-10.121094 1.15625-3.542969 3.839843-6.332031 7.371093-7.644531 22.574219-8.390625 38.585938-20.847656 54.074219-32.894532 7.609375-5.921874 14.945312-11.621093 22.746094-16.59375.117187-.070312.234375-.144531.347656-.222656 8.484375-5.375 17.539062-9.871094 28.117188-12.855468.277343-.058594.550781-.136719.824218-.226563 8.5625-2.332031 18.121094-3.675781 29.1875-3.675781 9.171875 0 19.378906.921875 30.894532 2.949218 25.386718 4.476563 42.921874 11.851563 56.179687 21.203126.28125.226562.570313.441406.875.621093 8.851563 6.394531 15.773437 13.691407 21.878906 21.601563.09375.132812.199219.265625.304688.394531 5.609375 7.324219 10.53125 15.164063 15.640625 23.304687 10.433594 16.617188 21.222656 33.800782 39.5625 49.40625 2.871094 2.441407 4.441406 5.976563 4.3125 9.703126-.125 3.605468-1.859375 6.898437-4.761719 9.039062-46.996094 34.679688-105.410156 48.039062-164.480469 37.625-59.066406-10.414062-109.386718-42.949219-141.691406-91.613281zm295.859375 98.855469c-2.089844-.011719-4.210937.210937-6.332031.707031-12.15625 2.847656-24.945313 2.617187-38.210938-.617188 8.285156-2.703125 16.414063-5.894531 24.355469-9.5625h7.503906c5.992188 0 11.058594 4.003907 12.683594 9.472657zm-297.785156-52.335938h21.398437c6.839844 6.546875 14.074219 12.636719 21.671875 18.25-18.632812 3.898438-37.550781 1.128906-50.925781-7.992188-.917969-.625-1.863281-1.179687-2.828125-1.679687 1.101563-4.941406 5.554687-8.578125 10.683594-8.578125zm-33.042969 25.8125c3.742188-5.484375 11.246094-6.90625 16.734375-3.164062 20.230469 13.800781 48.867187 16.214843 75.542969 6.574218-5.332032 8.824219-9.40625 18.207032-12.179688 28.011719-6.625 1.15625-13.308594 1.769531-19.945312 1.808594l-.664063.003906c-21.023437 0-40.5-5.707031-56.324219-16.503906-2.660156-1.8125-4.453124-4.550781-5.050781-7.710938-.011719-.0625-.015625-.128906-.023437-.191406-.011719-.113281-.03125-.222656-.046875-.332031-.433594-2.988282.246093-5.984375 1.957031-8.496094zm40.054688 98.535156h-67.226563v-68.25c0-6.917968 5.34375-12.609375 12.121094-13.179687 1.988281 4.84375 5.339843 9 9.761719 12.019531 18.328124 12.503906 40.726562 19.109375 64.777343 19.109375h.796875c5.511719-.035156 11.066406-.421875 16.605469-1.148437-.800781 6.46875-.894531 12.691406-.273437 18.636718-5.597657 1.476563-10.867188 3.832032-15.300782 6.9375-10.246094 7.171875-17.101562 15.496094-21.261718 25.875zm16.664062 0c2.632812-4.355468 6.671875-9.015625 13.199219-13.585937 2.835937-1.988281 6.214843-3.535157 9.851562-4.5625 2.171875 6.488281 5.328125 12.558593 9.46875 18.148437zm191.277344-32.613281c-1.402344 13.015625-5.289063 23.960937-11.550782 32.613281h-126.917968c-8.746094-7.757812-14.367188-16.988281-16.847656-27.613281-.058594-.550781-.179688-1.078125-.347657-1.578125-1.855469-9.207031-1.414062-19.433594 1.34375-30.632812 2.425781-9.824219 6.371094-19.191407 11.710938-27.941407 21.109375 11.070313 44.183593 18.964844 68.671875 23.28125 13.972656 2.464844 27.910156 3.683594 41.695312 3.683594 10.371094 0 20.652344-.695313 30.796875-2.0625 2.023438 10.046875 2.527344 20.191406 1.445313 30.25zm83.382812 32.613281h-77.371094c3.523438-6.800781 6.085938-14.402344 7.671876-22.742187 15.226562 4.992187 30.453124 7.527343 45.375 7.527343 8.175781 0 16.332031-.777343 24.324218-2.289062zm9.507813-38.621094c-1.695313 2.734376-4.355469 4.640626-7.488281 5.375-8.59375 2.011719-17.457032 3.03125-26.34375 3.03125-14.273438 0-28.921876-2.617187-43.617188-7.765624.402344-8.894532-.242188-17.816407-1.929688-26.664063 23.046876 10.183594 45.371094 12.867187 66.402344 7.949219 2.78125-.652344 5.566406-.269532 7.960938.882812.042968.019532.085937.039063.128906.058594 3.109375 1.542969 5.53125 4.40625 6.382812 8.039062.730469 3.132813.203126 6.359376-1.496093 9.09375zm-216.492188-151.730468c.441407.078125.878907.113281 1.3125.113281 3.570313 0 6.734375-2.558594 7.375-6.195313l1.953125-11.070312c.71875-4.082031-2.003906-7.972656-6.085937-8.691406-4.074219-.722656-7.96875 2.003906-8.6875 6.082031l-1.949219 11.070313c-.722656 4.082031 2.003906 7.972656 6.082031 8.691406zm57.867188 79.332031c1.691406.296875 3.390625.445313 5.082031.445313 6.644531 0 13.152344-2.269532 18.410156-6.515626 3.21875-2.601562 3.722656-7.324218 1.117188-10.546874-2.601563-3.222657-7.320313-3.722657-10.546875-1.121094-3.21875 2.601562-7.398438 3.679687-11.457031 2.964844-4.0625-.714844-7.621094-3.160157-9.757813-6.703126-2.136719-3.550781-6.746094-4.691406-10.292969-2.554687-3.546875 2.140625-4.691406 6.746094-2.554687 10.292969 4.378906 7.261718 11.667969 12.269531 20 13.738281zm-13.382813-39.425781 12.382813 8.34375c3.6875 2.484375 8.257812 3.289062 12.574219 2.214844l14.488281-3.605469c5.222656-1.300781 7.996093-7.011719 5.789062-11.917969-1.636719-3.636719-4.53125-6.554688-8.152343-8.21875-8.746094-4.015625-18.378907-5.714844-27.972657-4.933594-3.972656.324219-7.691406 2.078125-10.472656 4.933594-3.753906 3.859375-3.101563 10.171875 1.363281 13.183594zm0 0"/></svg>