<svg height="511pt" viewBox="-14 0 511 511.99741" width="511pt" xmlns="http://www.w3.org/2000/svg"><path d="m103.761719 397.914062c.082031 3.828126 3.917969 6.511719 7.542969 5.28125 16.875-5.742187 37.664062-1.25 55.648437-26.9375 10.578125-15.109374 11.214844-41.070312-5.472656-52.75-16.683594-11.683593-40.859375-2.210937-51.4375 12.898438-17.988281 25.6875-6.65625 43.683594-6.28125 61.507812zm0 0" fill="#4e5660"/><g fill="#e9901b"><path d="m189.3125 427.835938c-8.710938 0-16.589844-5.972657-18.652344-14.820313-4.875-20.929687-10.074218-45.652344-10.0625-74.21875.003906-10.582031 8.585938-19.15625 19.164063-19.15625h.007812c10.585938.003906 19.164063 8.585937 19.160157 19.171875-.011719 24.492188 4.671874 46.65625 9.0625 65.507812 2.402343 10.308594-4.007813 20.609376-14.316407 23.011719-1.464843.339844-2.925781.503907-4.363281.503907zm0 0"/><path d="m261.769531 415.054688c-9.558593 0-17.824219-7.140626-19-16.867188-2.324219-19.21875-5.503906-41.644531-13.886719-64.65625-3.625-9.945312 1.5-20.945312 11.445313-24.570312 9.945313-3.621094 20.945313 1.5 24.566406 11.445312 9.78125 26.835938 13.347657 51.847656 15.925781 73.183594 1.269532 10.507812-6.21875 20.054687-16.726562 21.324218-.78125.09375-1.554688.140626-2.324219.140626zm0 0"/><path d="m72.03125 299.914062c-11.09375 0-22.734375-1.589843-35.222656-4.125-10.371094-2.101562-17.078125-12.214843-14.976563-22.589843 2.105469-10.375 12.21875-17.078125 22.59375-14.976563 34.738281 7.042969 50.28125 3.480469 69.292969-15.894531 7.414062-7.550781 19.546875-7.667969 27.101562-.25 7.554688 7.414063 7.667969 19.546875.253907 27.101563-22.449219 22.871093-44.390625 30.734374-69.042969 30.734374zm0 0"/></g><path d="m216.515625 350.96875c53.046875-9.351562 86.429687-41.332031 73.597656-93.382812-12.910156-52.363282-63.257812-87.882813-104.285156-80.648438s-76.1875 57.832031-70.410156 111.453125c5.742187 53.296875 48.050781 71.933594 101.097656 62.578125zm0 0" fill="#eea849"/><path d="m449.902344 504.496094h-226.640625c-14.59375 0-26.425781-11.828125-26.425781-26.421875v-217.890625c0-14.59375 11.832031-26.421875 26.425781-26.421875h213.644531c5.550781 0 10.878906 2.207031 14.804688 6.132812l18.480468 18.480469c3.929688 3.929688 6.132813 9.253906 6.132813 14.808594v204.890625c0 14.59375-11.832031 26.421875-26.421875 26.421875zm0 0" fill="#4e5660"/><path d="m250.871094 233.761719h-27.609375c-14.59375 0-26.425781 11.828125-26.425781 26.421875v217.890625c0 14.59375 11.832031 26.421875 26.425781 26.421875h78.136719c-44.820313-52.082032-56.503907-200.144532-50.527344-270.734375zm0 0" fill="#383c43"/><path d="m399.96875 327.554688h-126.777344c-7.078125 0-12.820312-5.738282-12.820312-12.820313v-80.972656h152.414062v80.972656c0 7.082031-5.738281 12.820313-12.816406 12.820313zm0 0" fill="#383c43"/><path d="m399.96875 327.554688h-36.515625c-7.082031 0-12.820313-5.738282-12.820313-12.820313v-80.972656h62.152344v80.972656c0 7.082031-5.738281 12.820313-12.816406 12.820313zm0 0" fill="#c6c6c6"/><path d="m398.292969 504.496094h-123.425781c-8.003907 0-14.492188-6.488282-14.492188-14.492188v-73.703125c0-10.648437 8.632812-19.285156 19.28125-19.285156h113.847656c10.648438 0 19.28125 8.636719 19.28125 19.285156v73.703125c0 8.003906-6.488281 14.492188-14.492187 14.492188zm0 0" fill="#a3defe"/><path d="m260.375 416.300781v73.703125c0 8.003906 6.488281 14.492188 14.492188 14.492188h26.53125c-17.882813-20.78125-30.488282-56.84375-38.800782-97.167969-1.414062 2.679687-2.222656 5.730469-2.222656 8.972656zm0 0" fill="#7acefa"/><path d="m412.785156 434.613281h-152.410156v-18.3125c0-10.648437 8.632812-19.285156 19.28125-19.285156h113.847656c10.648438 0 19.28125 8.636719 19.28125 19.285156zm0 0" fill="#fff"/><path d="m262.597656 407.328125c-1.414062 2.679687-2.226562 5.730469-2.226562 8.972656v18.3125h8.730468c-2.40625-8.773437-4.574218-17.914062-6.503906-27.285156zm0 0" fill="#f6e3a3"/><path d="m387.816406 263.039062h-12.210937c-2.191407 0-3.972657 1.777344-3.972657 3.96875v27.300782c0 2.191406 1.777344 3.96875 3.972657 3.96875h12.210937c2.191406 0 3.96875-1.777344 3.96875-3.96875v-27.300782c0-2.191406-1.777344-3.96875-3.96875-3.96875zm0 0" fill="#383c43"/><path d="m294.90625 257.4375c-7.878906 0-15.261719-4.894531-18.054688-12.742188-.265624-.742187-.542968-1.542968-.828124-2.371093-.644532-1.847657-1.835938-5.28125-2.394532-6.382813-4.765625-9.453125-.96875-20.976562 8.484375-25.742187 9.449219-4.769531 20.972657-.972657 25.742188 8.480469 1.703125 3.378906 3.125 7.464843 4.375 11.070312.253906.730469.5 1.4375.730469 2.09375 3.550781 9.96875-1.65625 20.933594-11.628907 24.480469-2.121093.753906-4.292969 1.113281-6.425781 1.113281zm0 0" fill="#e9901b"/><path d="m46.398438 150.980469c-26.976563-17.554688-38.359376-54.101563-38.402344-80.96875-.007813-5.894531 4.167968-10.988281 9.953125-12.128907 28.425781-5.605468 66.75-5.046874 87.734375 22.609376zm0 0" fill="#4e5660"/><path d="m8.007812 70.824219c.265626 26.789062 11.683594 62.773437 38.390626 80.15625l37.023437-44.023438c-17.683594-18.855469-45.148437-32.871093-75.414063-36.132812zm0 0" fill="#f2d1a5"/><path d="m307.972656 104.859375c19.34375-25.726563 17.542969-63.957031 8.390625-89.21875-2.007812-5.542969-7.671875-8.902344-13.5-7.996094-28.628906 4.453125-64.449219 18.085938-74.710937 51.253907zm0 0" fill="#4e5660"/><path d="m316.628906 16.40625c8.914063 25.265625 10.492188 62.984375-8.65625 88.453125l-49.851562-28.703125c10.167968-23.769531 31.1875-46.332031 58.507812-59.75zm0 0" fill="#f2d1a5"/><path d="m163.984375 53.0625c98.738281-17.410156 111.414063 42.078125 175.78125 66.007812 12.167969 4.523438 17.125 19.09375 9.945313 29.910157-31.445313 47.367187-82.460938 85.832031-151.53125 98.011719-69.070313 12.179687-130.167969-6.519532-175.914063-40.273438-10.449219-7.710938-10.773437-23.09375-.882813-31.507812 52.300782-44.503907 43.863282-104.738282 142.601563-122.148438zm0 0" fill="#eea849"/><path d="m110.320312 71.457031c-44.433593 26.222657-48.820312 69.617188-88.9375 103.753907-9.890624 8.414062-9.566406 23.796874.882813 31.507812 45.746094 33.753906 106.84375 52.453125 175.914063 40.273438 7.933593-1.398438 15.613281-3.160157 23.066406-5.226563-126.082032 5.144531-139.347656-113.886719-110.925782-170.308594zm0 0" fill="#e9901b"/><path d="m349.710938 148.980469c4.492187-6.765625 4.234374-15 .433593-21.324219-81.460937 69.03125-121.535156-6.246094-172.523437 2.746094-50.988282 8.988281-62.894532 93.429687-163.054688 56.421875-1.410156 7.246093 1.164063 15.070312 7.699219 19.890625 45.75 33.757812 106.847656 52.457031 175.914063 40.277344 69.070312-12.179688 120.085937-50.644532 151.53125-98.011719zm0 0" fill="#f7ef87"/><path d="m108.246094 180.617188c-21 14.800781-48.269532 22.988281-93.679688 6.207031-1.410156 7.246093 1.164063 15.070312 7.699219 19.890625 45.75 33.757812 106.847656 52.457031 175.914063 40.277344 7.933593-1.398438 15.613281-3.160157 23.066406-5.226563-62.507813 2.550781-97.285156-25.417969-113-61.148437zm0 0" fill="#efd176"/><path d="m212.117188 195.726562c-2.429688-13.769531-12.632813-13.304687-24.941407-11.132812-12.304687 2.167969-22.054687 5.222656-19.625 18.992188 2.429688 13.769531 14.375 23.175781 26.679688 21.003906 12.304687-2.167969 20.3125-15.089844 17.886719-28.863282zm0 0" fill="#4e5660"/><path d="m123.53125 165.664062c-2.515625-14.25-19.054688-23.238281-36.945312-20.082031-17.890626 3.152344-30.355469 17.261719-27.84375 31.507813 2.515624 14.246094 19.054687 23.238281 36.945312 20.082031s30.355469-17.261719 27.84375-31.507813zm0 0" fill="#fff"/><path d="m305.300781 133.628906c-2.511719-14.246094-19.050781-23.238281-36.941406-20.082031-17.890625 3.152344-30.355469 17.257813-27.84375 31.503906 2.507813 14.246094 19.046875 23.238281 36.9375 20.085938 17.890625-3.152344 30.359375-17.257813 27.847656-31.507813zm0 0" fill="#fff"/><path d="m185.875 177.207031c-7.714844 1.359375-13.820312 2.992188-18.539062 6.535157-4.390626 3.296874-9.203126 9.640624-7.171876 21.148437 2.832032 16.058594 15.992188 27.511719 30.539063 27.511719 1.59375 0 3.210937-.136719 4.828125-.421875 8.085938-1.425781 15.023438-6.226563 19.542969-13.519531 4.351562-7.019532 5.921875-15.554688 4.429687-24.035157-3.960937-22.453125-24.75-18.785156-33.628906-17.21875zm16.449219 33.351563c-2.238281 3.613281-5.574219 5.972656-9.398438 6.648437-8.207031 1.449219-16.28125-5.246093-17.988281-14.921875-.855469-4.851562.558594-5.914062 1.402344-6.546875 2.484375-1.863281 7.53125-2.945312 12.140625-3.757812 4.058593-.71875 7.042969-1.058594 9.261719-1.058594 5.609374 0 6.296874 2.195313 6.988281 6.109375.855469 4.84375 0 9.648438-2.40625 13.527344zm242.230469 62.601562c-4.140626 0-7.5 3.355469-7.5 7.5v17.617188c0 4.140625 3.359374 7.5 7.5 7.5 4.144531 0 7.5-3.359375 7.5-7.5v-17.617188c0-4.144531-3.355469-7.5-7.5-7.5zm30.941406-20.085937-18.480469-18.484375c-5.375-5.371094-12.515625-8.328125-20.113281-8.328125h-117.945313c-1.242187-3.5625-2.640625-7.464844-4.40625-10.960938-1.796875-3.566406-4.3125-6.597656-7.324219-8.964843 18.730469-14.921876 35.167969-32.773438 48.730469-53.207032 4.652344-7.003906 5.828125-15.613281 3.226563-23.609375-2.640625-8.121093-8.765625-14.488281-16.804688-17.480469-8.421875-3.128906-15.953125-6.945312-22.9375-11.140624 5.777344-10.367188 9.328125-22.421876 10.574219-35.953126.378906-4.125-2.660156-7.777343-6.78125-8.15625-4.136719-.382812-7.777344 2.65625-8.15625 6.78125-1.011719 10.988282-3.773437 20.722657-8.210937 29.046876-5.644532-4.019532-11.015626-8.191407-16.316407-12.3125-6.109375-4.753907-12.269531-9.535157-18.789062-14.027344 9.621093-15.492188 23.824219-29.195313 40.351562-38.914063.28125 1.105469.546875 2.222657.792969 3.351563.890625 4.042968 4.886719 6.605468 8.9375 5.710937 4.046875-.890625 6.605469-4.890625 5.714844-8.933593-1.039063-4.714844-2.339844-9.269532-3.859375-13.578126-.015625-.046874-.03125-.09375-.046875-.136718-.082032-.226563-.15625-.464844-.238282-.691406-3.222656-8.898438-12.351562-14.308594-21.703124-12.847657-11.65625 1.8125-28.859376 5.804688-44.632813 14.527344-14.316406 7.917969-24.851563 18.214844-31.40625 30.664063-16.949219-3.703126-37.28125-4.28125-62.988281.25-25.703125 4.53125-44.613282 12.027343-59.277344 21.304687-10.414062-9.453125-23.835938-15.527344-39.996094-18.070313-17.804687-2.800781-35.339844-.667968-46.914062 1.613282-9.285156 1.832031-16.011719 10.03125-15.996094 19.5.039062 26.710937 10.566406 60.921875 33.78125 81.136718-5.132812 6.335938-10.910156 12.507813-17.757812 18.335938-6.535157 5.558594-10.109376 13.640625-9.816407 22.171875.292969 8.40625 4.339844 16.089844 11.105469 21.082031 22.839844 16.851563 48.105469 29.148438 74.789062 36.667969-11.40625 5.914063-24.449218 5.960937-46.683593 1.453125-14.414063-2.921875-28.511719 6.425781-31.433594 20.835938-2.917969 14.410156 6.425781 28.507812 20.835937 31.429687 14.378907 2.914063 26.042969 4.273437 36.714844 4.273437 13.707032 0 26.132813-2.363281 37.707032-7.171874 1.535156 7.128906 3.773437 13.679687 6.703124 19.640624-4.972656 3.417969-9.308593 7.597657-12.546874 12.222657-6.09375 8.703125-9.675782 17.355469-10.960938 26.453125-.578125 4.101562 2.28125 7.894531 6.382812 8.472656.351563.050781.707032.074219 1.054688.074219 3.675781 0 6.890625-2.707031 7.417969-6.453125.945312-6.703125 3.6875-13.226563 8.394531-19.945313 2.121094-3.03125 4.964844-5.804687 8.257812-8.136719 3.679688 4.632813 7.921876 8.769532 12.761719 12.363282 4.902344 3.640625 10.390625 6.660156 16.363281 9.066406.503907 8.339844 1.394532 16.289062 2.511719 23.867188-10.097656 11.03125-20.800781 12.863281-32.085937 14.796874-4.222656.722657-8.570313 1.464844-12.835938 2.710938-.03125-.492188-.070312-.996094-.117187-1.511719-.371094-4.125-4.019531-7.164062-8.140625-6.800781-4.125.371094-7.167969 4.015625-6.800782 8.140625.09375 1.015625.144532 1.953125.164063 2.867187.089844 4.179688 2.195313 8.113282 5.640625 10.523438 2.25 1.578125 4.917969 2.394531 7.601562 2.394531 1.421876 0 2.847657-.230469 4.214844-.695312 3.859375-1.3125 8.203125-2.058594 12.804688-2.84375 9.777344-1.671875 21.363281-3.660157 32.59375-12.128907 1.359375 6.828126 2.820312 13.296876 4.238281 19.394532 2.828125 12.140625 13.5 20.621094 25.953125 20.621094h.027344v42.738281c0 18.707031 15.21875 33.921875 33.921875 33.921875h226.640625c18.703125 0 33.921875-15.214844 33.921875-33.921875v-204.890625c0-7.597656-2.957031-14.738282-8.328125-20.109375zm-117.363282-11.8125h47.152344v73.472656c0 2.933594-2.386718 5.320313-5.316406 5.320313h-36.515625c-2.933594 0-5.320313-2.386719-5.320313-5.320313zm-39.140624 8.449219c1.285156-2.707032 2.089843-5.558594 2.417968-8.449219h21.722656v73.476562c0 1.839844.269532 3.617188.730469 5.316407h-70.671875c-2.933594 0-5.320312-2.386719-5.320312-5.316407v-72.96875c.421875 1.160157.851562 2.394531 1.0625 3.007813.292968.851562.578125 1.671875.851562 2.433594 3.773438 10.601562 13.871094 17.726562 25.121094 17.726562 3.046875 0 6.054688-.519531 8.941406-1.546875 6.710938-2.390625 12.089844-7.246094 15.144532-13.679687zm-39.75-24.253907c5.035156-2.925781 9.953124-6.03125 14.742187-9.316406 3.09375.886719 5.691406 2.980469 7.171875 5.914063 1.484375 2.941406 2.816406 6.773437 3.992188 10.160156l.148437.4375c.207031.589844.40625 1.164062.601563 1.707031 1.042968 2.933594.882812 6.101563-.453126 8.917969-1.335937 2.8125-3.691406 4.9375-6.625 5.980468-1.269531.453126-2.585937.679688-3.914062.679688-4.921875 0-9.335938-3.117188-10.988281-7.757812-.257813-.722657-.527344-1.5-.828125-2.367188-1.289063-3.703125-2.109375-5.957031-2.761719-7.25-.167969-.335938-.316406-.675781-.453125-1.019531-.027344-.097657-.066406-.191407-.101562-.285157-.675782-1.871093-.855469-3.847656-.53125-5.800781zm24.039062-210.277343c-18.035156 10.878906-33.566406 26.015624-44.214844 43.117187-5.753906-3.242187-11.878906-6.160156-18.550781-8.578125 7.652344-12.417969 24.75-28.449219 62.765625-34.539062zm-212.359375 60.910156c-5.441406 4.558594-10.199219 9.390625-14.496094 14.40625-15.855469-12.425782-35.625-21.332032-56.292969-25.390625 37.800782-7.277344 59.351563 1.933593 70.789063 10.984375zm-74.984375 3.472656c18.875 3.476562 36.933594 11.496094 51.285156 22.773438-4.589844 6.453124-8.738281 13.054687-12.855468 19.613281-3.558594 5.671875-7.171876 11.410156-11.085938 17.101562-13.03125-11.957031-24.9375-33.121093-27.34375-59.488281zm91.640625 205.238281c-10.808594 5.175781-22.230469 7.613281-35.546875 7.613281-9.640625 0-20.359375-1.261718-33.730469-3.972656-6.304687-1.277344-10.394531-7.449218-9.113281-13.753906 1.277344-6.300781 7.441406-10.390625 13.75-9.113281 31.21875 6.332031 49.070312 4.152343 66.078125-8.960938-1.613281 9.363281-2.09375 18.796875-1.4375 28.1875zm81.757813 135.535157c-.007813 0-.015626 0-.023438 0-5.445312 0-10.109375-3.710938-11.347656-9.023438-3.558594-15.28125-7.375-32.921875-9.023438-52.726562 6.421875 1.316406 13.246094 2.035156 20.394532 2.15625zm0-160.148438v85.5625c-18.386719-.367188-42.390626-5.445312-56.140626-26.683594-.175781-.335937-.375-.652344-.59375-.945312-4.746093-7.667969-8.183593-17.371094-9.617187-29.613282-.011719-.144531-.03125-.289062-.050781-.433593-.019532-.164063-.042969-.324219-.058594-.488281-1.132812-10.496094-.59375-21.085938 1.542969-31.566407 10.542969 1.433594 21.234375 2.160157 32.019531 2.160157 10.984375 0 22.0625-.757813 33.179688-2.269532-.179688 1.414063-.28125 2.839844-.28125 4.277344zm7.542968-20.582031c-61.109375 10.777343-121.539062-3.046875-170.160156-38.921875-3.058594-2.257813-4.890625-5.730469-5.019531-9.535156-.136719-3.925782 1.519531-7.652344 4.542969-10.226563 18.921874-16.101563 30.058593-33.839844 40.832031-50.996094 5.265625-8.394531 10.34375-16.480469 16.121093-24.035156.136719-.160156.261719-.324219.382813-.492187 6.308594-8.179688 13.464844-15.722657 22.617187-22.339844.34375-.199219.671876-.4375.988282-.699219 13.71875-9.664063 31.855468-17.28125 58.101562-21.910156 26.324219-4.640625 46.003906-3.660157 62.222656.761719.339844.113281.679688.207031 1.019532.269531 10.898437 3.09375 20.230468 7.757812 28.980468 13.308593.070313.046876.140626.089844.207032.132813 8.105468 5.160156 15.722656 11.074219 23.625 17.21875 15.988281 12.4375 32.523437 25.300781 55.8125 33.957031 3.722656 1.386719 6.550781 4.320313 7.765625 8.058594 1.179687 3.617188.648437 7.507812-1.453125 10.675781-33.421875 50.339844-85.480469 84-146.585938 94.773438zm208.40625 250.398437c0 3.855469-3.136718 6.992188-6.992187 6.992188h-123.425781c-3.859376 0-6.996094-3.136719-6.996094-6.992188v-47.890625h137.414062zm0-62.890625h-137.414062v-10.8125c0-6.496093 5.289062-11.785156 11.785156-11.785156h113.847656c6.496094 0 11.78125 5.289063 11.78125 11.785156zm63.539063 50.960938c0 10.433593-8.488281 18.921875-18.925781 18.921875h-30.757813c.738281-2.195313 1.144531-4.546875 1.144531-6.992188v-73.703125c0-14.769531-12.015625-26.785156-26.785156-26.785156h-113.84375c-14.769531 0-26.785156 12.015625-26.785156 26.785156v73.703125c0 2.445313.410156 4.792969 1.148437 6.992188h-30.761719c-10.433593 0-18.921874-8.488282-18.921874-18.921875v-51.773438c0-.023437 0-.046875 0-.070312v-166.042969c0-2.40625.464843-4.773438 1.339843-6.980469 14.097657-2.847656 27.722657-6.851562 40.765625-11.945312h6.429688v73.476562c0 11.203125 9.117187 20.316407 20.320312 20.316407h126.773438c11.207031 0 20.320312-9.113282 20.320312-20.316407v-73.476562h16.617188c3.589844 0 6.964844 1.398437 9.503906 3.9375l18.480469 18.480469c2.539062 2.539062 3.9375 5.914062 3.9375 9.503906zm-118.191407-69.757813h-28.105468c-4.144532 0-7.5 3.355469-7.5 7.5 0 4.140625 3.355468 7.5 7.5 7.5h28.105468c4.144532 0 7.5-3.359375 7.5-7.5 0-4.144531-3.355468-7.5-7.5-7.5zm-186.515624-235.335937 14.972656 3.726562c4.457031 1.109375 9.179687.273438 12.988281-2.292969l12.796875-8.621093c4.613281-3.109375 5.289062-9.632813 1.410156-13.621094-2.875-2.953125-6.71875-4.761719-10.824218-5.097656-9.910157-.8125-19.863282.945312-28.902344 5.097656-3.742188 1.71875-6.738282 4.734375-8.425782 8.492187-2.28125 5.070313.585938 10.972657 5.984376 12.316407zm-44.625-49.285157c-4.402344-3.078124-9.742188-4.265624-15.03125-3.332031-10.925782 1.929688-18.246094 12.382813-16.316407 23.304688.640625 3.640625 3.804688 6.199219 7.375 6.199219.433594 0 .871094-.035157 1.3125-.113282 4.078125-.71875 6.800781-4.609375 6.082031-8.691406-.488281-2.777344 1.375-5.4375 4.152344-5.925781 2.78125-.492188 5.4375 1.371093 5.925782 4.152343.71875 4.078126 4.613281 6.800782 8.691406 6.082032s6.800781-4.609375 6.082031-8.6875c-.933594-5.292969-3.871094-9.90625-8.273437-12.988282zm123.445312-27.75c-10.921875 1.925782-18.242188 12.382813-16.316406 23.304688.640625 3.640625 3.804687 6.199219 7.375 6.199219.433594 0 .871094-.035157 1.3125-.113281 4.078125-.71875 6.800781-4.609376 6.082031-8.6875-.488281-2.78125 1.375-5.4375 4.152344-5.929688 2.78125-.488281 5.4375 1.375 5.929687 4.152344.71875 4.078125 4.613282 6.800781 8.6875 6.082031 4.078125-.71875 6.804688-4.609375 6.082032-8.6875-1.925782-10.925781-12.378907-18.238281-23.304688-16.320313zm0 0"/></svg>