<svg height="512pt" viewBox="0 -43 512.00025 512" width="512pt" xmlns="http://www.w3.org/2000/svg"><path d="m89.242188 374.378906c-.613282 3.964844 2.859374 7.441406 6.828124 6.824219 18.476563-2.855469 39.128907 5.570313 62.386719-17.6875 13.679688-13.679687 19.0625-40.375 3.957031-55.480469-15.105468-15.105468-41.804687-9.722656-55.480468 3.957032-23.257813 23.253906-14.832032 43.90625-17.691406 62.386718zm0 0" fill="#4e5660"/><g fill="#e9901b"><path d="m175.648438 419.292969c-9.609376 0-17.652344-7.523438-18.179688-17.238281-1.21875-22.398438-2.082031-48.753907 3.097656-78.058594 1.75-9.910156 11.199219-16.523438 21.113282-14.773438 9.914062 1.75 16.527343 11.203125 14.773437 21.113282-4.503906 25.496093-3.699219 49.367187-2.589844 69.742187.542969 10.050781-7.160156 18.636719-17.207031 19.183594-.339844.019531-.675781.03125-1.007812.03125zm0 0"/><path d="m252.859375 419.289062c-.332031 0-.667969-.007812-1.003906-.027343-10.050781-.542969-17.753907-9.132813-17.207031-19.183594 1.105468-20.375 1.910156-44.25-2.59375-69.742187-1.753907-9.910157 4.863281-19.363282 14.773437-21.113282 9.914063-1.757812 19.363281 4.863282 21.117187 14.773438 5.179688 29.300781 4.3125 55.65625 3.09375 78.058594-.527343 9.714843-8.566406 17.234374-18.179687 17.234374zm0 0"/><path d="m65.582031 286.503906c-3.488281 0-7.011719-.996094-10.125-3.082031-8.363281-5.601563-10.601562-16.917969-5-25.28125 10.890625-16.261719 26.613281-28.25 46.722657-35.632813 19.019531-6.980468 37.25-8.074218 49.207031-7.753906 10.0625.261719 18 8.632813 17.738281 18.695313-.261719 9.894531-8.367188 17.742187-18.207031 17.742187-.164063 0-.324219 0-.488281-.007812-10.710938-.277344-47.019532.851562-64.691407 27.238281-3.515625 5.246094-9.28125 8.082031-15.15625 8.082031zm0 0"/><path d="m363.632812 284.601562c-1.417968 0-2.855468-.164062-4.292968-.511718-31.976563-7.71875-55.160156-18.28125-80.011719-36.449219-8.125-5.941406-9.894531-17.339844-3.953125-25.46875 5.9375-8.121094 17.339844-9.890625 25.464844-3.953125 20.675781 15.117188 40.101562 23.9375 67.054687 30.445312 9.785157 2.359376 15.800781 12.207032 13.4375 21.988282-2.015625 8.347656-9.476562 13.949218-17.699219 13.949218zm0 0"/></g><path d="m214.253906 346.425781c56.492188 0 96.800782-26.953125 93.027344-83.054687-3.796875-56.433594-49.332031-102.289063-93.027344-102.289063-43.695312 0-89.226562 45.855469-93.027344 102.289063-3.773437 56.101562 36.535157 83.054687 93.027344 83.054687zm0 0" fill="#eea849"/><path d="m74.964844 108.875c-24.664063-23.046875-29.765625-62.867188-24.914063-90.625 1.0625-6.09375 6.300781-10.59375 12.484375-10.71875 30.382813-.613281 69.867188 6.941406 86.503906 39.332031zm0 0" fill="#4e5660"/><path d="m49.914062 19.089844c-4.605468 27.71875.632813 66.96875 25.050782 89.785156l46.261718-38.726562c-14.832031-22.699219-40.648437-42.175782-71.3125-51.058594zm0 0" fill="#f2d1a5"/><path d="m353.542969 108.875c24.664062-23.046875 29.769531-62.867188 24.917969-90.625-1.066407-6.09375-6.304688-10.59375-12.488282-10.71875-30.378906-.613281-69.863281 6.941406-86.503906 39.332031zm0 0" fill="#4e5660"/><path d="m378.59375 19.089844c4.605469 27.71875-.632812 66.96875-25.050781 89.785156l-46.261719-38.726562c14.832031-22.699219 40.648438-42.175782 71.3125-51.058594zm0 0" fill="#f2d1a5"/><path d="m214.253906 29.152344c105.15625 0 107.414063 63.753906 169.539063 100.191406 11.746093 6.890625 14.214843 22.839844 4.824219 32.703125-41.101563 43.199219-100.804688 73.640625-174.363282 73.640625s-133.261718-30.441406-174.363281-73.636719c-9.390625-9.867187-6.921875-25.816406 4.824219-32.707031 62.125-36.4375 64.382812-100.191406 169.539062-100.191406zm0 0" fill="#eea849"/><path d="m155.472656 38.378906c-50.671875 18.988282-63.101562 63.011719-110.757812 90.964844-11.746094 6.890625-14.214844 22.839844-4.824219 32.707031 41.101563 43.195313 100.804687 73.636719 174.363281 73.636719 8.449219 0 16.703125-.417969 24.777344-1.195312-131.167969-17.652344-123.191406-143.015626-83.558594-196.113282zm0 0" fill="#e9901b"/><path d="m388.621094 162.046875c5.871094-6.167969 7.105468-14.71875 4.328125-21.945313-96.710938 56.464844-124.390625-28.585937-178.695313-28.585937-54.304687 0-81.980468 85.050781-178.695312 28.585937-2.773438 7.226563-1.542969 15.777344 4.328125 21.945313 41.105469 43.199219 100.808593 73.640625 174.367187 73.640625s133.261719-30.441406 174.367188-73.640625zm0 0" fill="#f7ef87"/><path d="m133.449219 150.75c-24.382813 11.464844-54.039063 14.953125-97.890625-10.648438-2.773438 7.226563-1.542969 15.777344 4.328125 21.945313 41.105469 43.199219 100.808593 73.640625 174.367187 73.640625 8.445313 0 16.703125-.417969 24.777344-1.195312-65.027344-8.75-95.855469-43.976563-105.582031-83.742188zm0 0" fill="#efd176"/><path d="m151.949219 138.09375c0-15.171875-15.445313-27.472656-34.496094-27.472656-19.054687 0-34.5 12.300781-34.5 27.472656s15.445313 27.472656 34.5 27.472656c19.050781 0 34.496094-12.300781 34.496094-27.472656zm0 0" fill="#fff"/><path d="m345.554688 138.09375c0-15.171875-15.445313-27.472656-34.496094-27.472656-19.054688 0-34.5 12.300781-34.5 27.472656s15.445312 27.472656 34.5 27.472656c19.050781 0 34.496094-12.300781 34.496094-27.472656zm0 0" fill="#fff"/><path d="m227.917969 186.441406c0-8.398437-6.117188-15.203125-13.664063-15.203125s-13.664062 6.804688-13.664062 15.203125c0 8.398438 6.117187 15.207032 13.664062 15.207032s13.664063-6.808594 13.664063-15.207032zm0 0" fill="#4e5660"/><path d="m408.394531 240.714844-23.730469-23.734375-19.039062 13.464843c-14.539062 10.277344-26.585938 23.6875-35.257812 39.238282-3.605469 6.46875-2.480469 14.546875 2.757812 19.785156l2.785156 2.785156c5.238282 5.238282 13.3125 6.359375 19.785156 2.753906 15.546876-8.671874 28.957032-20.71875 39.238282-35.253906zm0 0" fill="#f7ef87"/><path d="m340.917969 253.894531c-3.917969 4.960938-7.453125 10.234375-10.550781 15.789063-3.605469 6.46875-2.480469 14.546875 2.757812 19.785156l2.785156 2.785156c5.234375 5.238282 13.3125 6.363282 19.785156 2.753906 5.550782-3.097656 10.828126-6.632812 15.789063-10.546874zm0 0" fill="#89d47f"/><path d="m365.625 230.445312c-2.992188 2.113282-5.871094 4.371094-8.644531 6.742188 7.628906 12.828125 18.378906 23.582031 31.207031 31.210938 2.375-2.773438 4.628906-5.652344 6.742188-8.644532l13.464843-19.039062-23.734375-23.734375zm0 0" fill="#efd176"/><path d="m504.5 191.683594c0 39.105468-31.703125 70.808594-70.808594 70.808594-39.105468 0-70.804687-31.703126-70.804687-70.808594 0-39.105469 31.699219-70.808594 70.804687-70.808594 39.105469 0 70.808594 31.703125 70.808594 70.808594zm0 0" fill="#8eafe2"/><path d="m504.5 191.683594c0 39.105468-31.703125 70.808594-70.808594 70.808594-39.105468 0-70.804687-31.703126-70.804687-70.808594 0-39.105469 31.699219-70.808594 70.804687-70.808594 39.105469 0 70.808594 31.703125 70.808594 70.808594zm0 0" fill="#8eafe2"/><path d="m488.613281 236.363281c-82.988281 3.53125-103.050781-80.851562-79.277343-111.1875-27.105469 9.929688-46.449219 35.960938-46.449219 66.507813 0 39.105468 31.699219 70.808594 70.804687 70.808594 22.160156 0 41.9375-10.1875 54.921875-26.128907zm0 0" fill="#6a96d7"/><path d="m442.789062 153.226562c-21.257812-5.019531-42.558593 8.144532-47.578124 29.402344-5.019532 21.253906 8.144531 42.558594 29.402343 47.578125 21.257813 5.019531 42.558594-8.144531 47.578125-29.402343 5.019532-21.257813-8.144531-42.558594-29.402344-47.578126zm0 0" fill="#a3defe"/><path d="m411.53125 158.921875c-8.453125 5.730469-14.566406 14.648437-16.625 25.023437l46.523438 46.527344c10.375-2.0625 19.292968-8.175781 25.023437-16.628906zm0 0" fill="#7acefa"/><path d="m99.136719 286.363281-34.144531 34.140625c-3.957032 3.957032-10.375 3.957032-14.332032 0l-40.199218-40.203125c-3.957032-3.957031-3.957032-10.375 0-14.332031l34.140624-34.140625c3.957032-3.957031 10.375-3.957031 14.332032 0l40.203125 40.203125c3.957031 3.957031 3.957031 10.375 0 14.332031zm0 0" fill="#fcf2d0"/><path d="m48.566406 229.386719c-1.449218.480469-2.8125 1.289062-3.964844 2.441406l-34.140624 34.140625c-3.957032 3.960938-3.957032 10.375 0 14.332031l40.199218 40.203125c3.960938 3.957032 10.375 3.957032 14.332032 0l9.699218-9.699218c-27.121094-14.039063-33.46875-55.84375-26.125-81.417969zm0 0" fill="#f6e3a3"/><path d="m69.796875 242.691406-48.476563 48.472656-10.859374-10.863281c-3.957032-3.957031-3.957032-10.375 0-14.332031l34.140624-34.140625c3.957032-3.957031 10.375-3.957031 14.332032 0zm0 0" fill="#89d47f"/><path d="m46.867188 265.621094c-2.007813-12.792969-1.28125-25.851563 1.703124-36.234375-1.449218.480469-2.816406 1.289062-3.96875 2.441406l-34.140624 34.140625c-3.957032 3.960938-3.957032 10.375 0 14.332031l10.859374 10.863281zm0 0" fill="#5ec783"/><path d="m433.691406 113.375c-15.488281 0-29.929687 4.539062-42.09375 12.328125-1.246094-1.042969-2.582031-1.992187-4.007812-2.828125-8.273438-4.851562-15.464844-10.265625-22.003906-15.972656 8.417968-10.3125 14.714843-23.324219 18.359374-38.105469.992188-4.023437-1.464843-8.085937-5.488281-9.078125-4.019531-.988281-8.085937 1.464844-9.078125 5.484375-3.011718 12.21875-8.050781 22.917969-14.722656 31.375-5.210938-5.277344-10.09375-10.664063-14.90625-15.992187-5.515625-6.101563-11.074219-12.246094-17.082031-18.144532 12.921875-14.523437 30.410156-26.285156 49.59375-33.363281.078125.996094.148437 2 .199219 3.007813.214843 4.136718 3.722656 7.328124 7.878906 7.101562 4.136718-.214844 7.3125-3.738281 7.101562-7.875-.238281-4.617188-.730468-9.136719-1.453125-13.46875-.007812-.039062-.011719-.082031-.019531-.121094-.042969-.253906-.078125-.511718-.121094-.761718-1.679687-9.609376-9.972656-16.730469-19.722656-16.9257818-12.339844-.2539062-30.792969.7382818-48.621094 6.8593748-16.265625 5.582031-29.027344 14.332031-38.03125 26.050781-16.839844-6.960937-37.765625-11.292968-65.21875-11.292968-27.449218 0-48.375 4.332031-65.214844 11.292968-9.003906-11.71875-21.765624-20.46875-38.03125-26.050781-17.828124-6.121093-36.28125-7.105469-48.621093-6.8593748-9.75.1953128-18.042969 7.3124998-19.726563 16.9257818-4.824218 27.613281-.148437 64.921874 20.265625 89.9375-6.539062 5.710937-13.734375 11.125-22.003906 15.976562-7.664063 4.496094-12.765625 12.09375-14 20.851562-1.214844 8.625 1.53125 17.1875 7.535156 23.496094 18.398438 19.335938 39.492188 35.226563 62.539063 47.398438-.804688.277344-1.605469.558594-2.398438.847656-9.996094 3.671875-19.066406 8.492188-27.078125 14.339844l-3.28125-3.28125c-6.875-6.875-18.0625-6.875-24.9375 0l-34.144531 34.140625c-6.875 6.875-6.875 18.0625 0 24.9375l40.199219 40.203125c3.441406 3.4375 7.953125 5.15625 12.472656 5.15625 4.515625 0 9.03125-1.71875 12.46875-5.15625l34.140625-34.144532c6.753906-6.753906 6.855469-17.664062.335938-24.566406 2.78125-1.449218 5.765624-2.722656 8.949218-3.8125-.765625 12.046875.339844 23.0625 3.273438 33.003906-5.835938 2.617188-11.144532 6.171876-15.367188 10.398438-19.371094 19.367188-19.269531 37.867188-19.1875 52.730469.023438 4.914062.050782 9.554687-.609375 13.8125-.652343 4.21875.773438 8.546875 3.804688 11.582031 2.546875 2.546875 6.011719 3.957031 9.554687 3.957031.675782 0 1.351563-.050781 2.027344-.152343.945312-.148438 1.933594-.265626 3.011719-.355469 4.125-.355469 7.183593-3.988281 6.828125-8.117188-.355469-4.128906-3.980469-7.175781-8.113282-6.828125-.695312.058594-1.363281.128906-2.015624.203125.558593-4.769531.535156-9.546875.507812-14.179687-.074219-13.941406-.144531-27.105469 14.796875-42.046875 2.847656-2.84375 6.441406-5.273438 10.433594-7.117188 2.90625 5.429688 6.480469 10.453125 10.757812 15.027344 4.988281 5.335937 10.8125 9.953125 17.40625 13.835937-.878906 7.871094-1.378906 15.480469-1.621093 22.796876-5.429688 4.59375-11.0625 7.652343-17.144532 9.324218-3.996094 1.09375-6.347656 5.21875-5.25 9.214844.914063 3.332031 3.933594 5.519531 7.226563 5.519531.660156 0 1.328125-.089843 1.992187-.269531 4.5625-1.253906 8.898438-3.054688 13.070313-5.4375.144531 7.84375.496093 15.285156.875 22.277344.742187 13.640625 12.015625 24.328125 25.667969 24.328125.472656 0 .945312-.015625 1.414062-.039063 6.859375-.375 13.164062-3.394531 17.753906-8.511718 4.585938-5.113282 6.90625-11.710938 6.535156-18.570313-.742187-13.65625-1.398437-29.363281-.175781-46.226563 4.238281.320313 8.597657.480469 13.078125.480469 4.480469 0 8.839844-.160156 13.078125-.480469 1.21875 16.867188.566407 32.574219-.175781 46.226563-.371094 6.859375 1.949219 13.457031 6.535156 18.570313 4.589844 5.113281 10.894532 8.136718 17.75 8.511718.476563.023438.949219.039063 1.417969.039063 13.652344 0 24.925781-10.6875 25.667969-24.328125.996094-18.316406 1.804687-39.664063-.851563-63.425782 6.589844-3.878906 12.417969-8.5 17.40625-13.832031 11.921875-12.753906 18.527344-28.871093 19.738281-48.039062 1.992188.890625 4.015626 1.746093 6.070313 2.585937.46875 5.539063 2.816406 10.90625 6.925781 15.019532l2.785156 2.785156c4.617188 4.613281 10.8125 7.027344 17.0625 7.027344 4.003907 0 8.03125-.992188 11.679688-3.027344 16.429688-9.160156 30.851562-22.117188 41.710938-37.476563l.667968-.941406c9.769532 4.390625 20.585938 6.851563 31.96875 6.851563 43.179688 0 78.308594-35.128907 78.308594-78.308594 0-43.179688-35.128906-78.308594-78.308594-78.308594zm-67.871094-98.34375c.3125.003906.613282.042969.910157.097656-21.28125 7.925782-40.722657 21.046875-55.179688 37.25-5.519531-4.554687-11.511719-8.824218-18.210937-12.648437 10.175781-11.628907 31.035156-25.496094 72.480468-24.699219zm-303.132812 0c41.421875-.792969 62.300781 13.070312 72.480469 24.699219-6.699219 3.824219-12.691407 8.09375-18.207031 12.648437-14.460938-16.203125-33.898438-29.324218-55.183594-37.25.296875-.054687.601562-.09375.910156-.097656zm-6.496094 14.027344c19.207032 7.074218 36.714844 18.84375 49.648438 33.382812-6.007813 5.898438-11.566406 12.042969-17.082032 18.144532-4.804687 5.3125-9.675781 10.691406-14.871093 15.953124-11.519531-14.835937-20.171875-39.304687-17.695313-67.480468zm-40.429687 245.941406c-1.023438-1.027344-1.023438-2.699219 0-3.726562l34.140625-34.140626c.515625-.515624 1.191406-.773437 1.867187-.773437.671875 0 1.347657.257813 1.863281.773437l5.554688 5.554688-37.867188 37.867188zm78.070312 6.058594-34.140625 34.140625c-1.027344 1.027343-2.699218 1.027343-3.726562 0l-24.035156-24.035157 37.867187-37.867187 24.035156 24.035156c1.027344 1.027344 1.027344 2.699219 0 3.726563zm22.039063-34.054688c-8.226563 2.097656-15.605469 5.148438-22.078125 9.078125l-15.527344-15.53125c6.414063-4.414062 13.609375-8.105469 21.5-11 5.816406-2.136719 12.007813-3.808593 18.40625-5.023437 1.285156.527344 2.574219 1.058594 3.871094 1.5625-2.683594 6.828125-4.742188 13.8125-6.171875 20.914062zm-70.550782-90.125c-2.824218-2.96875-4.117187-7.003906-3.542968-11.066406.589844-4.191406 3.042968-7.835938 6.730468-10 22.429688-13.15625 37.144532-29.429688 51.375-45.167969 6.953126-7.6875 13.648438-15.09375 20.964844-21.832031.210938-.171875.410156-.351562.597656-.542969 8.019532-7.3125 16.796876-13.808593 27.46875-18.984375.433594-.15625.859376-.359375 1.269532-.601562 15.953125-7.476563 36.101562-12.03125 64.070312-12.03125 28.019532 0 48.191406 4.574218 64.15625 12.070312.34375.199219.695313.363282 1.054688.5 10.730468 5.183594 19.546875 11.707032 27.597656 19.046875.1875.1875.382812.371094.59375.539063 7.316406 6.738281 14.015625 14.148437 20.964844 21.832031 14.085937 15.578125 28.660156 31.675781 50.703125 44.761719-12.359375 11.941406-20.800781 27.898437-23.210938 45.75-40.28125 30.773437-89.253906 47.035156-141.859375 47.035156-65.179687 0-125.175781-25.324219-168.933594-71.308594zm316.917969 66.777344-.945312.664062c-4.621094 3.269532-9.015625 6.863282-13.164063 10.734376-10.558594-3.742188-20.113281-8.25-29.582031-14.007813 12.984375-5.902344 25.445313-12.957031 37.273437-21.128906.878907 8.375 3.101563 16.351562 6.417969 23.738281zm-178.589843 184.570312c-1.914063 2.132813-4.542969 3.390626-7.40625 3.546876-5.933594.332031-10.964844-4.238282-11.285157-10.125-.886719-16.339844-1.621093-35.152344.261719-55.765626 6.503906 2.460938 13.535156 4.371094 21.054688 5.710938-1.359376 18-.683594 34.550781.097656 48.890625.15625 2.859375-.8125 5.609375-2.722656 7.742187zm79.902343-6.578124c-.308593 5.6875-5.003906 10.144531-10.691406 10.144531-.195313 0-.394531-.007813-.597656-.019531-2.859375-.15625-5.488281-1.414063-7.398438-3.546876-1.914062-2.132812-2.882812-4.882812-2.726562-7.742187.78125-14.335937 1.457031-30.886719.097656-48.890625 7.519531-1.335938 14.550781-3.25 21.054687-5.710938 1.878907 20.609376 1.148438 39.425782.261719 55.765626zm20.574219-86.6875c-4.859375 5.195312-10.785156 9.5625-17.636719 13.105468-.027343.011719-.054687.023438-.082031.039063-13.804688 7.109375-31.433594 10.820312-52.152344 10.820312s-38.347656-3.710937-52.15625-10.820312c-.027344-.015625-.050781-.027344-.078125-.039063-6.851562-3.539062-12.777343-7.90625-17.636719-13.105468-11.828124-12.652344-17.101562-29.839844-15.671874-51.082032.753906-11.207031 3.269531-22.199218 7.480468-32.773437 24.71875 7.945312 50.96875 12.082031 78.0625 12.082031 27.132813 0 53.363282-4.082031 78.089844-12.019531 4.195312 10.554687 6.703125 21.527343 7.453125 32.707031 1.429687 21.246094-3.84375 38.433594-15.671875 51.085938zm40.304688-49.992188c-3.367188-1.417969-6.644532-2.914062-9.855469-4.5-.820313-9.4375-2.738281-18.730469-5.722657-27.777344 9.113282 5.695313 18.25 10.3125 28.109376 14.199219-4.695313 5.65625-8.898438 11.714844-12.53125 18.078125zm27.609374 23.488281c-3.519531 1.964844-7.972656 1.347657-10.828124-1.507812l-2.785157-2.785157c-2.851562-2.851562-3.472656-7.304687-1.507812-10.828124 8.023437-14.394532 19.363281-27.035157 32.792969-36.589844 5.179687 7.335937 11.585937 13.738281 18.917968 18.921875-9.550781 13.425781-22.195312 24.761719-36.589844 32.789062zm81.652344-33.464843c-34.90625 0-63.304687-28.402344-63.304687-63.308594 0-34.910156 28.398437-63.308594 63.304687-63.308594 34.910156 0 63.308594 28.398438 63.308594 63.308594 0 34.90625-28.398438 63.308594-63.308594 63.308594zm.003906-110.359376c-25.945312 0-47.050781 21.105469-47.050781 47.050782 0 25.941406 21.105469 47.050781 47.050781 47.050781 25.941407 0 47.046876-21.109375 47.046876-47.050781 0-25.945313-21.105469-47.050782-47.046876-47.050782zm0 79.101563c-17.671874 0-32.050781-14.378906-32.050781-32.050781s14.378907-32.050782 32.050781-32.050782c17.667969 0 32.046876 14.378907 32.046876 32.050782s-14.378907 32.050781-32.046876 32.050781zm-357.722656 44.566406c-4-1.070312-8.113281 1.300781-9.1875 5.300781-.851562 3.160157-2.757812 4.574219-6.648437 7.214844-4.039063 2.742188-9.066407 6.15625-11.761719 13.011719-1.515625 3.855469.378906 8.207031 4.234375 9.726563.902344.351562 1.832031.519531 2.742187.519531 2.992188 0 5.820313-1.804688 6.984376-4.757813.953124-2.421875 2.886718-3.820312 6.226562-6.089844 4.378906-2.976562 10.375-7.046874 12.707031-15.734374 1.074219-4-1.296875-8.117188-5.296875-9.191407zm145.199219-108.6875 14.785156-6.578125c5.332031-2.371094 7.21875-8.988281 3.9375-13.8125-2.429687-3.570312-6.070312-6.140625-10.25-7.238281-10.089843-2.640625-20.691406-2.640625-30.78125 0-4.179687 1.097656-7.820312 3.667969-10.25 7.238281-3.28125 4.824219-1.394531 11.441406 3.9375 13.8125l14.785157 6.578125c4.402343 1.957031 9.433593 1.957031 13.835937 0zm14.246094 26.828125c0-12.519531-9.492188-22.703125-21.164063-22.703125s-21.164062 10.183594-21.164062 22.703125c0 12.523438 9.492187 22.710938 21.164062 22.710938s21.164063-10.1875 21.164063-22.710938zm-27.328125 0c0-4.175781 2.824218-7.703125 6.164062-7.703125s6.164063 3.527344 6.164063 7.703125c0 4.179688-2.820313 7.707032-6.164063 7.707032-3.339844 0-6.164062-3.527344-6.164062-7.707032zm-70.53125-95.4375c-4.140625 0-7.5 3.359375-7.5 7.5v12.183594c0 4.144531 3.359375 7.5 7.5 7.5s7.5-3.355469 7.5-7.5v-12.183594c0-4.140625-3.359375-7.5-7.5-7.5zm153.390625 27.183594c4.144531 0 7.5-3.355469 7.5-7.5v-12.183594c0-4.140625-3.355469-7.5-7.5-7.5-4.140625 0-7.5 3.359375-7.5 7.5v12.183594c0 4.140625 3.359375 7.5 7.5 7.5zm0 0"/></svg>