<svg height="512pt" viewBox="-58 0 512 512" width="512pt" xmlns="http://www.w3.org/2000/svg"><path d="m104.546875 403.140625c.082031 3.878906 3.96875 6.597656 7.640625 5.347656 17.101562-5.816406 38.167969-1.265625 56.394531-27.296875 10.722657-15.308594 11.363281-41.617187-5.546875-53.457031-16.90625-11.835937-41.40625-2.238281-52.125 13.074219-18.230468 26.03125-6.746094 44.269531-6.363281 62.332031zm0 0" fill="#4e5660"/><g fill="#e9901b"><path d="m191.234375 433.808594c-8.980469 0-17.109375-6.160156-19.234375-15.289063-4.945312-21.230469-10.21875-46.308593-10.207031-75.289062.003906-10.914063 8.855469-19.761719 19.769531-19.761719h.007812c10.917969.003906 19.765626 8.859375 19.761719 19.777344-.011719 24.78125 4.730469 47.21875 9.175781 66.304687 2.476563 10.632813-4.136718 21.261719-14.769531 23.738281-1.507812.351563-3.015625.519532-4.503906.519532zm0 0"/><path d="m264.667969 420.859375c-9.859375 0-18.390625-7.367187-19.601563-17.398437-2.351562-19.457032-5.570312-42.164063-14.054687-65.445313-3.738281-10.257813 1.546875-21.605469 11.804687-25.34375 10.257813-3.742187 21.609375 1.546875 25.34375 11.804687 9.921875 27.226563 13.542969 52.59375 16.160156 74.238282 1.308594 10.839844-6.414062 20.6875-17.253906 22-.808594.097656-1.605468.144531-2.398437.144531zm0 0"/><path d="m43.707031 326.953125c-4.414062 0-8.851562-1.46875-12.53125-4.488281-8.4375-6.925782-9.664062-19.382813-2.738281-27.824219 27.390625-33.378906 72.808594-50.550781 103.378906-55.113281 10.792969-1.613282 20.863282 5.835937 22.472656 16.632812 1.613282 10.800782-5.835937 20.859375-16.632812 22.472656-19.019531 2.839844-56.984375 14.691407-78.65625 41.09375-3.90625 4.761719-9.578125 7.226563-15.292969 7.226563zm0 0"/><path d="m270.605469 245.90625c-9.203125 0-17.445313-6.460938-19.347657-15.832031-2.179687-10.699219 4.726563-21.136719 15.425782-23.316407 8.175781-1.664062 17.703125-2.957031 27.792968-4.328124 21.449219-2.914063 45.753907-6.21875 68.230469-14.164063 10.292969-3.644531 21.589844 1.753906 25.230469 12.046875 3.636719 10.296875-1.753906 21.589844-12.050781 25.230469-26.304688 9.300781-53.90625 13.050781-76.085938 16.066406-9.425781 1.28125-18.328125 2.488281-25.230469 3.894531-1.328124.269532-2.65625.402344-3.964843.402344zm0 0"/></g><path d="m218.804688 355.566406c53.757812-9.476562 87.589843-41.886718 74.585937-94.632812-13.085937-53.0625-64.105469-89.058594-105.679687-81.726563-41.578126 7.332031-77.210938 58.605469-71.355469 112.941407 5.816406 54.011718 48.695312 72.898437 102.449219 63.417968zm0 0" fill="#eea849"/><path d="m46.410156 152.902344c-27.335937-17.792969-38.871094-54.824219-38.914062-82.054688-.007813-5.972656 4.222656-11.132812 10.085937-12.289062 28.804688-5.683594 67.640625-5.117188 88.910157 22.910156zm0 0" fill="#4e5660"/><path d="m7.511719 71.671875c.265625 27.148437 11.835937 63.613281 38.898437 81.230469l37.523438-44.613282c-17.921875-19.109374-45.753906-33.308593-76.421875-36.617187zm0 0" fill="#f2d1a5"/><path d="m311.488281 106.164062c19.601563-26.070312 17.777344-64.816406 8.5-90.414062-2.035156-5.617188-7.773437-9.019531-13.675781-8.101562-29.011719 4.511718-65.316406 18.324218-75.714844 51.9375zm0 0" fill="#4e5660"/><path d="m320.261719 16.527344c9.03125 25.601562 10.632812 63.824218-8.773438 89.632812l-50.519531-29.085937c10.304688-24.085938 31.605469-46.953125 59.292969-60.546875zm0 0" fill="#f2d1a5"/><path d="m165.574219 53.671875c100.058593-17.640625 112.902343 42.640625 178.128906 66.890625 12.335937 4.585938 17.359375 19.347656 10.082031 30.3125-31.863281 48-83.566406 86.980469-153.558594 99.324219-69.992187 12.339843-131.910156-6.605469-178.269531-40.8125-10.589843-7.8125-10.914062-23.40625-.894531-31.933594 53-45.09375 44.449219-106.136719 144.511719-123.78125zm0 0" fill="#eea849"/><path d="m111.191406 72.3125c-45.03125 26.574219-49.472656 70.546875-90.128906 105.140625-10.019531 8.527344-9.695312 24.117187.894531 31.929687 46.359375 34.207032 108.277344 53.15625 178.269531 40.816407 8.039063-1.417969 15.824219-3.203125 23.375-5.296875-127.773437 5.214844-141.214843-115.414063-112.410156-172.589844zm0 0" fill="#e9901b"/><path d="m353.785156 150.875c4.550782-6.859375 4.289063-15.203125.4375-21.613281-82.550781 69.957031-123.160156-6.328125-174.828125 2.785156-51.671875 9.109375-63.742187 94.683594-165.238281 57.179687-1.429688 7.339844 1.179688 15.269532 7.800781 20.15625 46.359375 34.207032 108.277344 53.15625 178.269531 40.816407 69.992188-12.34375 121.695313-51.324219 153.558594-99.324219zm0 0" fill="#f7ef87"/><path d="m109.085938 182.933594c-21.277344 15-48.910157 23.296875-94.933594 6.292968-1.425782 7.339844 1.183594 15.269532 7.804687 20.15625 46.359375 34.207032 108.277344 53.15625 178.269531 40.816407 8.039063-1.417969 15.824219-3.203125 23.375-5.296875-63.34375 2.585937-98.585937-25.761719-114.515624-61.96875zm0 0" fill="#efd176"/><path d="m124.558594 167.792969c-2.542969-14.4375-19.304688-23.550781-37.433594-20.351563-18.128906 3.195313-30.761719 17.488282-28.21875 31.925782 2.546875 14.4375 19.304688 23.550781 37.433594 20.355468 18.128906-3.195312 30.765625-17.492187 28.21875-31.929687zm0 0" fill="#fff"/><path d="m308.792969 135.285156c-2.546875-14.4375-19.308594-23.546875-37.4375-20.351562-18.128907 3.199218-30.761719 17.496094-28.214844 31.933594s19.308594 23.546874 37.4375 20.351562c18.128906-3.199219 30.761719-17.496094 28.214844-31.933594zm0 0" fill="#fff"/><path d="m150.636719 500.757812 222.007812-246.265624-218.726562 167.792968zm0 0" fill="#7acefa"/><path d="m70.378906 379.445312 170.074219 105.726563c16.207031 10.074219 37.582031 3.441406 45.238281-14.039063l89.75-204.910156c3.441406-7.855468-3.945312-16.117187-12.132812-13.578125l-288.109375 89.296875c-17.011719 5.273438-19.945313 28.101563-4.820313 37.503906zm0 0" fill="#a3defe"/><path d="m70.378906 379.445312 170.074219 105.726563c16.207031 10.074219 37.582031 3.441406 45.238281-14.039063l89.75-204.910156c3.441406-7.855468-3.945312-16.117187-12.132812-13.578125l-288.109375 89.296875c-17.011719 5.273438-19.945313 28.101563-4.820313 37.503906zm0 0" fill="#a3defe"/><path d="m75.199219 341.941406c-17.011719 5.273438-19.945313 28.101563-4.820313 37.503906l109.226563 67.902344c-41.046875-38.746094-47.203125-86.199218-20.070313-131.546875zm0 0" fill="#7acefa"/><path d="m97.359375 396.21875 36.503906 101.882812c3.367188 9.402344 17.054688 8.117188 18.613281-1.746093l9.496094-59.96875 210.671875-181.894531zm0 0" fill="#8eafe2"/><path d="m97.359375 396.21875 36.503906 101.882812c3.367188 9.402344 17.054688 8.117188 18.613281-1.746093l9.496094-59.96875 210.671875-181.894531zm0 0" fill="#6a96d7"/><path d="m395.007812 197.8125c-2.429687-6.867188-7.386718-12.378906-13.957031-15.515625-6.574219-3.140625-13.980469-3.53125-20.84375-1.101563-8.957031 3.164063-18.191406 5.550782-27.203125 7.441407 9.929688-10.265625 18.980469-21.488281 27.03125-33.613281 4.695313-7.074219 5.882813-15.765626 3.253906-23.839844-2.664062-8.199219-8.851562-14.632813-16.96875-17.652344-8.574218-3.183594-16.242187-7.074219-23.34375-11.347656 5.859376-10.484375 9.464844-22.679688 10.738282-36.375.382812-4.125-2.648438-7.777344-6.773438-8.164063-4.140625-.394531-7.777344 2.652344-8.160156 6.773438-1.039062 11.15625-3.855469 21.039062-8.378906 29.484375-5.753906-4.09375-11.226563-8.34375-16.628906-12.546875-6.214844-4.832031-12.480469-9.695313-19.117188-14.265625 9.777344-15.777344 24.25-29.730469 41.085938-39.609375.351562 1.386719.691406 2.785156.996093 4.210937.863281 4.050782 4.855469 6.632813 8.898438 5.769532 4.050781-.863282 6.632812-4.847657 5.769531-8.898438-1.070312-5.015625-2.4375-9.863281-4.046875-14.441406-.027344-.085938-.054687-.171875-.085937-.253906-.078126-.222657-.152344-.453126-.230469-.671876-3.246094-8.976562-12.449219-14.421874-21.882813-12.960937-11.804687 1.839844-29.226562 5.882813-45.199218 14.714844-14.515626 8.027343-25.191407 18.472656-31.824219 31.101562-17.179688-3.765625-37.792969-4.359375-63.863281.234375-26.070313 4.597656-45.242188 12.203125-60.097657 21.621094-10.546875-9.597656-24.152343-15.761719-40.539062-18.339844-18.023438-2.835937-35.78125-.679687-47.503907 1.632813-9.363281 1.847656-16.1445308 10.117187-16.132812 19.664062 0 .253907.0078125.515625.0117188.769531v.015626c.2421872 26.957031 10.9335932 61.164062 34.2617192 81.421874-5.21875 6.453126-11.097657 12.738282-18.070313 18.671876-6.597656 5.613281-10.210937 13.773437-9.910156 22.390624.292969 8.488282 4.382812 16.246094 11.214843 21.289063 19.003907 14.019531 39.667969 24.925781 61.421876 32.597656-17.871094 8.300781-39.660157 21.605469-56.289063 41.867188-9.539063 11.621093-7.84375 28.839843 3.777344 38.378906 4.863281 3.992187 11.007812 6.191406 17.289062 6.191406 8.203125 0 15.890625-3.636719 21.09375-9.972656 12.519531-15.257813 30.730469-24.742187 44.265625-30.121094 1.191406 9.894531 3.605469 18.9375 7.207032 26.996094l-43.292969 13.417969c-10.710938 3.320312-18.253907 12.292968-19.683594 23.414062s3.601563 21.707032 13.121094 27.625l24.765625 15.394532 22.390625 62.5c1.394531 3.898437 5.691406 5.929687 9.589843 4.527343 3.898438-1.394531 5.929688-5.6875 4.53125-9.589843l-21.058593-58.769532 213.375-109.851562-162.910157 140.652344c-.101562.085937-.199218.183593-.296874.28125-.078126.070312-.160157.144531-.234376.21875-.070312.074218-.136718.15625-.207031.230468-.089843.105469-.179687.207032-.265625.316406-.058594.070313-.113281.148438-.167968.222657-.089844.121093-.175782.246093-.257813.375-.023437.035156-.050781.066406-.070313.101562-.027343.039063-.046874.085938-.070312.125-.078125.132813-.152344.265625-.222656.398438-.042969.085937-.085938.167969-.125.253906-.058594.125-.113282.253906-.164063.382813-.039062.09375-.078125.1875-.113281.28125-.042969.121093-.078125.246093-.113281.367187-.03125.105469-.066407.207031-.09375.3125-.027344.121094-.050781.25-.078125.375-.019532.105469-.046875.214844-.0625.320313l-9.488282 59.9375c-.171874 1.09375-.816406 1.703124-1.921874 1.804687-1.109376.113281-1.851563-.371094-2.222657-1.414063l-1.152343-3.207031c-1.394532-3.902343-5.695313-5.929687-9.589844-4.53125-3.898438 1.398438-5.925782 5.691407-4.53125 9.589844l1.152344 3.207031c2.492187 6.960938 8.816406 11.371094 16.058593 11.371094.558594 0 1.121094-.027344 1.6875-.078125 4.789063-.449219 8.925781-2.75 11.734375-6.226563l36.984375-41.023437 43.222657 26.867187c6.222656 3.871094 13.328124 5.855469 20.496093 5.855469 3.863281 0 7.746094-.574219 11.515625-1.746093 10.765625-3.339844 19.535156-11.179688 24.058594-21.507813l89.75-204.910156c2.785156-6.355469 1.640625-13.519531-2.984375-18.691407-4.621094-5.175781-11.609375-7.113281-18.238281-5.058593l-59.371094 18.398437c-.316406-1.574218-.65625-3.15625-1.046875-4.742187-.808594-3.273438-1.757813-6.503907-2.839844-9.691407.960938-.128906 1.949219-.265624 2.980469-.40625 22.515625-3.058593 50.539062-6.863281 77.578125-16.425781 6.867187-2.425781 12.378906-7.382812 15.515625-13.957031s3.53125-13.976562 1.101562-20.84375zm-231.621093 277.601562 4.226562-26.691406 12.710938 7.902344zm201.867187-204.632812-86.433594 197.34375c-2.773437 6.339844-8.15625 11.148438-14.765624 13.199219-6.605469 2.050781-13.769532 1.128906-19.644532-2.519531l-69.820312-43.40625zm-58.035156-255.683594c-18.476562 11.054688-34.386719 26.523438-45.257812 44.011719-5.882813-3.316406-12.152344-6.300781-18.984376-8.773437 7.765626-12.671876 25.214844-29.105469 64.242188-35.238282zm-215.527344 61.910156c-5.574218 4.660157-10.445312 9.605469-14.835937 14.738282-16.199219-12.714844-36.4375-21.808594-57.582031-25.875 38.765624-7.585938 60.78125 1.886718 72.417968 11.136718zm-76.253906 3.398438c19.21875 3.519531 37.613281 11.6875 52.214844 23.179688-4.671875 6.5625-8.890625 13.277343-13.078125 19.945312-3.628907 5.78125-7.308594 11.632812-11.304688 17.433594-13.273437-12.136719-25.414062-33.695313-27.832031-60.558594zm92.796875 198.230469c-15.382813 5.59375-38.945313 16.730469-55.03125 36.332031-2.339844 2.851562-5.800781 4.484375-9.496094 4.484375-2.863281 0-5.550781-.960937-7.773437-2.785156-5.230469-4.292969-5.992188-12.039063-1.699219-17.269531 20.597656-25.097657 50.472656-38.511719 67.6875-44.570313 2.871094.691406 5.753906 1.324219 8.652344 1.90625-1.457031 7.269531-2.238281 14.585937-2.339844 21.902344zm-81.824219-75.289063c-3.125-2.304687-4.992187-5.855468-5.128906-9.738281-.140625-4.007813 1.554688-7.816406 4.640625-10.445313 19.164063-16.304687 30.445313-34.273437 41.359375-51.65625 5.332031-8.496093 10.472656-16.683593 16.320312-24.328124.144532-.175782.285157-.355469.414063-.539063 6.394531-8.292969 13.652344-15.941406 22.925781-22.644531.363282-.210938.707032-.460938 1.035156-.734375 13.90625-9.792969 32.296876-17.511719 58.902344-22.203125 26.675782-4.703125 46.625-3.710938 63.070313.765625.351562.121093.710937.21875 1.070312.285156 11.046875 3.136719 20.503907 7.867187 29.378907 13.492187.078124.054688.15625.101563.238281.152344 8.207031 5.226563 15.921875 11.21875 23.925781 17.445313 16.195312 12.597656 32.945312 25.625 56.53125 34.394531 3.796875 1.414062 6.6875 4.410156 7.929688 8.226562 1.203124 3.695313.660156 7.671876-1.484376 10.90625-33.882812 51.039063-86.664062 85.164063-148.613281 96.085938-61.953125 10.921875-123.222656-3.089844-172.515625-39.464844zm259.695313 59.378906c.464843 1.882813.863281 3.757813 1.203125 5.621094l-156.554688 48.523438c-3.566406-7.394532-5.910156-15.9375-6.941406-25.527344-1.152344-10.675781-.601562-21.449219 1.582031-32.109375 10.710938 1.460937 21.574219 2.199219 32.53125 2.199219 14.414063 0 28.992188-1.273438 43.601563-3.851563 25.71875-4.53125 49.949218-12.84375 72.101562-24.5 5.703125 9.273438 9.90625 19.214844 12.476563 29.644531zm11.855469 18.023438c.003906-.003906.007812-.003906.011718-.003906l18.339844-5.683594-218.601562 112.542969-23.371094-14.527344c-4.542969-2.824219-6.847656-7.675781-6.164063-12.976563.679688-5.304687 4.136719-9.414062 9.246094-10.996093zm82.40625-68.558594c-1.410157 2.957032-3.890626 5.191406-6.980469 6.28125-25.585938 9.046875-52.761719 12.738282-74.601563 15.703125-2.484375.339844-4.742187.644531-6.890625.945313-1.582031-3.210938-3.308593-6.359375-5.1875-9.441406 9-5.492188 17.597657-11.578126 25.757813-18.214844 16.125-2.410156 34.773437-5.777344 52.746094-12.128906 3.085937-1.09375 6.414062-.917969 9.371093.492187 2.957031 1.414063 5.1875 3.894531 6.28125 6.984375 1.09375 3.09375.917969 6.421875-.496093 9.378906zm-179.578126-25.300781c-2.292968 3.800781-6.101562 6.421875-10.460937 7.1875-4.355469.765625-8.832031-.390625-12.28125-3.179687-3.226563-2.601563-7.945313-2.097657-10.546875 1.121093-2.605469 3.222657-2.101562 7.945313 1.121094 10.546875 5.441406 4.398438 12.175781 6.746094 19.058594 6.746094 1.746093 0 3.507812-.152344 5.257812-.460938 8.625-1.523437 16.171875-6.703124 20.699219-14.21875 2.136719-3.550781.996093-8.160156-2.554688-10.296874-3.542969-2.132813-8.15625-.992188-10.292969 2.554687zm-35.082031-11.695313 15.171875 3.773438c4.519532 1.125 9.304688.28125 13.164063-2.320312l12.96875-8.738282c4.671875-3.148437 5.355469-9.761718 1.425781-13.804687-2.910156-2.992188-6.804688-4.824219-10.964844-5.164063-10.046875-.824218-20.132812.957032-29.292968 5.164063-3.792969 1.742187-6.824219 4.796875-8.535157 8.605469-2.3125 5.140624.589844 11.121093 6.0625 12.484374zm-54.089843-43.964843c-.71875-4.078125-4.609376-6.804688-8.6875-6.082031-4.082032.71875-6.804688 4.609374-6.085938 8.6875l2.046875 11.589843c.640625 3.640625 3.804687 6.199219 7.375 6.199219.433594 0 .871094-.035156 1.3125-.113281 4.078125-.722657 6.804687-4.609375 6.082031-8.691407zm133.230468-11.539063c.640625 3.636719 3.804688 6.199219 7.375 6.199219.433594 0 .871094-.039063 1.3125-.117187 4.078125-.71875 6.800782-4.609376 6.082032-8.6875l-2.042969-11.59375c-.71875-4.078126-4.609375-6.804688-8.691407-6.082032-4.078124.71875-6.800781 4.609375-6.082031 8.6875zm0 0"/></svg>