<svg height="511pt" viewBox="0 -56 511.99915 511" width="511pt" xmlns="http://www.w3.org/2000/svg"><path d="m256 304.8125c5.085938-6.070312 12.113281-10.273438 20.308594-10.273438 17 0 28.996094 18.054688 28.996094 33.453126 0 26.175781-16.363282 33.058593-25.15625 45.066406-1.886719 2.578125-5.792969 2.578125-7.683594 0-4.5625-6.238282-11.167969-11.09375-16.464844-17.984375zm0 0" fill="#4e5660"/><path d="m371.191406 336.601562c-3.503906 0-7.050781-.996093-10.191406-3.078124-22.855469-15.152344-31.757812-31.746094-39.613281-46.382813-2.851563-5.308594-5.542969-10.320313-8.847657-15.214844-5.710937-8.453125-3.492187-19.933593 4.960938-25.644531 8.453125-5.714844 19.933594-3.492188 25.648438 4.960938 4.355468 6.449218 7.625 12.535156 10.789062 18.425781 6.910156 12.875 12.367188 23.042969 27.480469 33.066406 8.5 5.636719 10.824219 17.101563 5.1875 25.601563-3.554688 5.363281-9.429688 8.265624-15.414063 8.265624zm0 0" fill="#e9901b"/><path d="m256 168.449219c27.707031-7.816407 57.035156-2.589844 73.835938 14.210937 24.59375 24.59375 24.410156 76.023438-5.214844 109.921875-20.4375 23.386719-44.921875 26.917969-68.621094 16.265625zm0 0" fill="#eea849"/><path d="m437.609375 231.671875c26.851563.910156 52.132813-18.628906 65.023437-36.980469 2.832032-4.027344 2.414063-9.507812-.996093-13.058594-16.753907-17.445312-43.226563-35.414062-70.820313-26.550781zm0 0" fill="#4e5660"/><path d="m502.238281 195.242188c-13.007812 18.191406-38.046875 37.328124-64.628906 36.429687l-4.242187-47.832031c21.121093-4.425782 46.613281-.859375 68.871093 11.402344zm0 0" fill="#f2d1a5"/><path d="m280.824219 74.890625c-.90625-26.851563 18.628906-52.132813 36.984375-65.027344 4.027344-2.828125 9.507812-2.414062 13.058594.996094 17.441406 16.753906 35.410156 43.226563 26.546874 70.820313zm0 0" fill="#4e5660"/><path d="m317.257812 10.261719c-18.191406 13.007812-37.332031 38.046875-36.433593 64.628906l47.832031 4.242187c4.429688-21.125.859375-46.613281-11.398438-68.871093zm0 0" fill="#f2d1a5"/><path d="m256 70.28125c53.433594 12.039062 90.234375-19.71875 148.085938 38.132812 59.179687 59.179688 24.570312 96.332032 39.027343 151.804688 2.734375 10.488281-4.855469 20.851562-15.691406 21.121094-47.441406 1.175781-98.175781-15.289063-139.574219-56.6875-13-13.003906-23.539062-26.925782-31.847656-41.375zm0 0" fill="#eea849"/><path d="m431.972656 146.6875c17.832032 39.203125.050782 70.976562 11.140625 113.527344 2.734375 10.488281-4.855469 20.855468-15.691406 21.125-47.441406 1.175781-98.175781-15.292969-139.574219-56.691406-4.753906-4.753907-9.164062-9.636719-13.269531-14.617188 83.753906 63.886719 149.816406-11.15625 157.394531-63.34375zm0 0" fill="#e9901b"/><path d="m256.023438 105.199219c28.574218 42.039062 76.40625 24.269531 101.707031 49.566406 30.5625 30.5625-1.726563 94.007813 84.480469 116.65625-2.503907 5.628906-8.011719 9.746094-14.789063 9.914063-47.445313 1.179687-98.175781-15.289063-139.574219-56.6875-12.988281-12.988282-23.519531-26.894532-31.824218-41.328126zm0 0" fill="#f7ef87"/><path d="m381.128906 222.324219c7.269532 20.171875 21.996094 38.828125 61.082032 49.097656-2.503907 5.628906-8.011719 9.746094-14.789063 9.917969-47.445313 1.175781-98.175781-15.292969-139.574219-56.691406-4.753906-4.753907-9.164062-9.636719-13.269531-14.617188 41.519531 31.671875 78.695313 29.199219 106.550781 12.292969zm0 0" fill="#efd176"/><path d="m412.707031 208.738281c-10.722656-10.722656-26.335937-12.492187-34.875-3.953125-8.539062 8.539063-6.769531 24.15625 3.953125 34.878906 10.722656 10.722657 26.335938 12.492188 34.875 3.953126 8.542969-8.539063 6.769532-24.15625-3.953125-34.878907zm0 0" fill="#fff"/><path d="m303.753906 99.785156c-10.722656-10.722656-26.339844-12.492187-34.878906-3.953125-8.539062 8.539063-6.769531 24.15625 3.953125 34.878907 10.722656 10.722656 26.339844 12.492187 34.878906 3.953124 8.539063-8.539062 6.769531-24.15625-3.953125-34.878906zm0 0" fill="#fff"/><path d="m323.3125 189.179688c-4.699219-4.699219-12.59375-4.429688-17.632812.609374-5.039063 5.035157-5.308594 12.933594-.609376 17.632813 4.703126 4.703125 12.597657 4.429687 17.636719-.605469 5.035157-5.039062 5.308594-12.933594.605469-17.636718zm0 0" fill="#4e5660"/><path d="m256 304.8125c-5.089844-6.070312-12.113281-10.273438-20.3125-10.273438-17 0-28.996094 18.054688-28.996094 33.453126 0 26.175781 16.363282 33.058593 25.152344 45.066406 1.890625 2.578125 5.796875 2.578125 7.6875 0 4.5625-6.238282 11.167969-11.09375 16.464844-17.984375v-50.261719zm0 0" fill="#4e5660"/><path d="m140.804688 336.601562c-5.984376 0-11.855469-2.902343-15.410157-8.265624-5.640625-8.5-3.316406-19.960938 5.183594-25.601563 15.113281-10.019531 20.574219-20.191406 27.484375-33.066406 3.160156-5.886719 6.429688-11.976563 10.789062-18.425781 5.710938-8.453126 17.195313-10.675782 25.644532-4.960938 8.453125 5.710938 10.675781 17.195312 4.960937 25.644531-3.304687 4.894531-5.996093 9.90625-8.84375 15.214844-7.859375 14.636719-16.761719 31.230469-39.617187 46.382813-3.140625 2.082031-6.6875 3.078124-10.191406 3.078124zm0 0" fill="#e9901b"/><path d="m256 168.449219c-27.710938-7.816407-57.039062-2.589844-73.839844 14.210937-24.589844 24.59375-24.410156 76.023438 5.214844 109.921875 20.4375 23.386719 44.921875 26.917969 68.625 16.265625zm0 0" fill="#eea849"/><path d="m74.386719 231.671875c-26.851563.910156-52.132813-18.628906-65.023438-36.980469-2.828125-4.027344-2.414062-9.507812.996094-13.058594 16.753906-17.445312 43.226563-35.414062 70.820313-26.550781zm0 0" fill="#4e5660"/><path d="m9.761719 195.242188c13.007812 18.191406 38.042969 37.328124 64.628906 36.429687l4.238281-47.832031c-21.121094-4.425782-46.613281-.859375-68.867187 11.402344zm0 0" fill="#f2d1a5"/><path d="m231.171875 74.890625c.90625-26.851563-18.628906-52.132813-36.984375-65.027344-4.027344-2.828125-9.507812-2.414062-13.058594.996094-17.441406 16.753906-35.410156 43.226563-26.546875 70.820313zm0 0" fill="#4e5660"/><path d="m194.738281 10.261719c18.191407 13.007812 37.332031 38.046875 36.433594 64.628906l-47.832031 4.242187c-4.429688-21.125-.859375-46.613281 11.398437-68.871093zm0 0" fill="#f2d1a5"/><path d="m256 70.28125c-53.4375 12.039062-90.238281-19.71875-148.089844 38.132812-59.179687 59.179688-24.570312 96.332032-39.027344 151.804688-2.734374 10.488281 4.855469 20.851562 15.691407 21.121094 47.445312 1.175781 98.175781-15.289063 139.574219-56.6875 13-13.003906 23.539062-26.925782 31.851562-41.375zm0 0" fill="#eea849"/><path d="m80.023438 146.6875c-17.828126 39.203125-.050782 70.976562-11.140626 113.527344-2.730468 10.488281 4.855469 20.855468 15.691407 21.125 47.445312 1.175781 98.175781-15.292969 139.574219-56.691406 4.753906-4.753907 9.164062-9.636719 13.273437-14.617188-83.753906 63.886719-149.820313-11.15625-157.398437-63.34375zm0 0" fill="#e9901b"/><path d="m255.972656 105.199219c-28.570312 42.039062-76.40625 24.269531-101.707031 49.566406-30.5625 30.5625 1.726563 94.007813-84.480469 116.65625 2.503906 5.628906 8.011719 9.746094 14.789063 9.914063 47.445312 1.179687 98.175781-15.289063 139.574219-56.6875 12.988281-12.988282 23.519531-26.894532 31.824218-41.328126zm0 0" fill="#f7ef87"/><path d="m130.867188 222.324219c-7.269532 20.171875-21.996094 38.828125-61.082032 49.097656 2.503906 5.628906 8.011719 9.746094 14.789063 9.917969 47.445312 1.175781 98.175781-15.292969 139.574219-56.691406 4.753906-4.753907 9.164062-9.636719 13.269531-14.617188-41.519531 31.671875-78.691407 29.199219-106.550781 12.292969zm0 0" fill="#efd176"/><path d="m134.15625 204.789062c-8.539062-8.539062-24.15625-6.769531-34.878906 3.953126-10.722656 10.722656-12.492188 26.339843-3.953125 34.878906 8.539062 8.539062 24.15625 6.769531 34.878906-3.953125 10.722656-10.722657 12.492187-26.339844 3.953125-34.878907zm0 0" fill="#fff"/><path d="m243.117188 95.828125c-8.539063-8.539063-24.15625-6.765625-34.878907 3.957031-10.722656 10.722656-12.492187 26.335938-3.953125 34.875 8.539063 8.539063 24.15625 6.769532 34.878906-3.953125 10.722657-10.722656 12.492188-26.335937 3.953126-34.878906zm0 0" fill="#fff"/><path d="m206.3125 189.785156c-5.039062-5.039062-12.933594-5.308594-17.636719-.609375-4.699219 4.703125-4.429687 12.597657.609375 17.632813 5.035156 5.039062 12.933594 5.3125 17.632813.609375 4.703125-4.699219 4.429687-12.597657-.605469-17.632813zm0 0" fill="#4e5660"/><path d="m197.628906 178.335938c-5.445312-.195313-10.496094 1.78125-14.253906 5.539062-7.617188 7.621094-7.34375 20.289062.609375 28.242188 3.78125 3.785156 8.75 5.96875 13.984375 6.148437.238281.007813.476562.011719.710938.011719 5.160156 0 9.949218-1.957032 13.542968-5.554688 3.761719-3.757812 5.726563-8.820312 5.542969-14.25-.183594-5.238281-2.367187-10.203125-6.152344-13.988281-3.78125-3.785156-8.75-5.964844-13.984375-6.148437zm3.988282 23.785156c-1.0625 1.0625-2.417969 1.179687-3.128907 1.152344-1.425781-.046876-2.808593-.671876-3.898437-1.761719-2.105469-2.105469-2.378906-5.257813-.605469-7.027344 1.0625-1.0625 2.421875-1.175781 3.125-1.15625 1.425781.050781 2.808594.675781 3.898437 1.765625 1.089844 1.085938 1.714844 2.46875 1.765626 3.894531.023437.714844-.09375 2.066407-1.15625 3.132813zm113.414062-83.484375c1.921875 0 3.839844-.730469 5.304688-2.195313l6.855468-6.855468c2.933594-2.929688 2.933594-7.679688.003906-10.609376-2.929687-2.925781-7.679687-2.929687-10.609374 0l-6.855469 6.855469c-2.929688 2.929688-2.929688 7.679688 0 10.609375 1.464843 1.464844 3.382812 2.195313 5.300781 2.195313zm192.015625 57.800781c-27.617187-28.753906-52.269531-32.398438-67.394531-30.824219-5.675782-13.234375-15.035156-27.273437-30.261719-42.503906-15.230469-15.230469-29.269531-24.589844-42.507813-30.265625 1.578126-15.125-2.070312-39.78125-30.820312-67.394531-6.125-5.882813-15.617188-6.605469-22.566406-1.722657-.167969.121094-.339844.246094-.507813.367188-.003906.003906-.003906.003906-.003906.003906-18.027344 12.859375-36.027344 36.019532-39.1875 61.261719-3.382813-.265625-6.8125-.667969-10.296875-1.25v-55.613281c0-4.140625-3.359375-7.5-7.5-7.5-4.144531 0-7.5 3.359375-7.5 7.5v55.613281c-3.484375.585937-6.917969.984375-10.300781 1.253906-3.15625-25.242187-21.15625-48.40625-39.183594-61.265625-.003906 0-.003906 0-.003906 0-.171875-.121094-.339844-.25-.511719-.371094-6.953125-4.882812-16.4375-4.15625-22.5625 1.726563-28.75 27.613281-32.398438 52.265625-30.824219 67.390625-13.238281 5.675781-27.277343 15.039062-42.503906 30.265625-15.230469 15.230469-24.589844 29.269531-30.265625 42.507813-15.125-1.578126-39.777344 2.070312-67.390625 30.820312-5.882813 6.125-6.609375 15.613281-1.726563 22.5625.15625.226562.328126.449219.492188.675781.023438.035157.046875.070313.074219.105469 2.171875 3.019531 4.601562 6.015625 7.253906 8.914062 1.480469 1.617188 3.503906 2.4375 5.535156 2.4375 1.808594 0 3.621094-.652343 5.0625-1.96875 3.054688-2.796874 3.265625-7.542968.464844-10.597656-.214844-.234375-.421875-.476562-.632813-.714844 13.585938-5.921874 28.492188-8.816406 42.617188-8.230468-.003906 6.226562.304688 12.355468.609375 18.445312.257813 5.113282.515625 10.285156.59375 15.546875-5.9375-.894531-11.988281-2.84375-18.078125-5.871093-3.707031-1.847657-8.210938-.332032-10.054688 3.375-1.84375 3.707031-.332031 8.210937 3.375 10.054687 8.105469 4.035156 16.261719 6.554687 24.332032 7.542969-.5 6.34375-1.484375 12.863281-3.242188 19.609375-1.902344 7.296875-.402344 14.925781 4.113282 20.921875 4.453124 5.910156 11.25 9.410156 18.648437 9.589844 1.644531.042968 3.28125.0625 4.921875.0625 18.105469 0 35.871094-2.488282 52.945312-7.308594-3.863281 5.308594-8.59375 10.105468-15.820312 14.894531-5.78125 3.835937-9.726562 9.691406-11.101562 16.488281-1.378907 6.800782-.023438 13.730469 3.808593 19.511719 4.824219 7.277344 12.921875 11.621094 21.660157 11.621094 5.109374 0 10.066406-1.5 14.335937-4.328125 16.722656-11.089844 26.597656-23.0625 33.949219-34.78125 4.019531 3.628906 8.207031 6.703125 12.546875 9.183594-1.589844 4.558593-2.445313 9.285156-2.445313 13.8125 0 22.441406 10.71875 33.042968 19.332032 41.566406 2.734374 2.707031 5.320312 5.261718 7.273437 7.929687 2.292969 3.136719 5.992187 5.003907 9.894531 5.003907s7.601563-1.871094 9.890625-5.003907c.863281-1.175781 1.851563-2.332031 2.917969-3.488281v17.25c0 4.140625 3.355469 7.5 7.5 7.5s7.5-3.359375 7.5-7.5v-17.25c1.066406 1.15625 2.054688 2.3125 2.914062 3.488281 2.292969 3.132813 5.992188 5.003907 9.894532 5.003907s7.601562-1.871094 9.894531-5.003907c1.953125-2.667969 4.539063-5.222656 7.273437-7.929687 8.613282-8.523438 19.332032-19.125 19.332032-41.566406 0-4.527344-.855469-9.253907-2.441406-13.8125 4.335937-2.480469 8.523437-5.554688 12.546874-9.183594 7.347657 11.71875 17.222657 23.691406 33.945313 34.777344 4.269531 2.832031 9.226563 4.328124 14.335937 4.328124 8.738282 0 16.835938-4.34375 21.660157-11.617187 3.835937-5.785156 5.1875-12.710937 3.8125-19.511719-1.378907-6.796875-5.320313-12.65625-11.105469-16.488281-7.222656-4.789063-11.957031-9.582031-15.816406-14.894531 17.074218 4.820312 34.839844 7.308594 52.941406 7.308594 1.636719 0 3.28125-.023438 4.925781-.0625 7.394531-.183594 14.191407-3.679688 18.644531-9.59375 4.519532-5.996094 6.015626-13.621094 4.113282-20.917969-1.757813-6.746094-2.742188-13.265625-3.242188-19.613281 8.074219-.984376 16.226563-3.507813 24.332032-7.539063 3.710937-1.847656 5.21875-6.347656 3.375-10.058594-1.847657-3.707031-6.34375-5.21875-10.054688-3.375-6.089844 3.03125-12.140625 4.980469-18.074219 5.875.074219-5.265625.332031-10.4375.589844-15.550781.304687-6.089844.613281-12.21875.613281-18.445312 14.121094-.585938 29.027344 2.308593 42.617188 8.230468-.214844.238282-.417969.480469-.636719.71875-2.796875 3.054688-2.589844 7.796875.46875 10.59375 1.4375 1.320313 3.25 1.96875 5.0625 1.96875 2.027344 0 4.054687-.820312 5.53125-2.433594 2.65625-2.902343 5.085937-5.898437 7.253906-8.917968.027344-.035156.050781-.070313.074219-.105469.164062-.222656.332031-.449219.492188-.671875 4.882812-6.949219 4.15625-16.4375-1.726563-22.5625zm-442.214844-1.796875c-14.621093-.613281-29.925781 1.964844-44.1875 7.363281 19.210938-18.035156 35.636719-21.9375 46.722657-21.6875-1.222657 4.863282-2.027344 9.632813-2.535157 14.324219zm132.542969-152.730469c15.273438 13.417969 23.492188 30.132813 25.695312 43.875-5.246093-.078125-10.40625-.332031-15.503906-.589844-6.089844-.304687-12.222656-.613281-18.449218-.609374-.585938-14.144532 2.316406-29.074219 8.257812-42.675782zm-15.871094-.765625c-5.398437 14.261719-7.976562 29.566407-7.363281 44.1875-4.691406.503907-9.460937 1.308594-14.324219 2.535157-.25-11.089844 3.652344-27.511719 21.6875-46.722657zm-34.652344 306.128907c-1.804687 1.199218-3.894531 1.828124-6.046874 1.828124-3.695313 0-7.121094-1.832031-9.160157-4.910156-1.621093-2.441406-2.191406-5.367187-1.609375-8.238281.582032-2.875 2.246094-5.347656 4.691406-6.96875 16.398438-10.871094 22.613282-22.121094 29.574219-35.085937.601563-.25 1.195313-.507813 1.792969-.765626 3.328125 7.347657 7.464844 14.195313 12.382812 20.449219-6.277343 10.730469-14.910156 22.605469-31.625 33.691407zm101.644532 25.128906c-1.914063 2.242187-4.003906 4.320312-6.191406 6.488281-2.226563 2.203125-4.507813 4.464844-6.613282 6.945313-2.109375-2.480469-4.394531-4.738282-6.621094-6.941407-7.984374-7.898437-14.878906-14.722656-14.878906-30.902343 0-2.589844.460938-5.316407 1.308594-8 5.019531 1.394531 10.167969 2.121093 15.425781 2.121093 5.753907 0 11.628907-.847656 17.574219-2.542969v32.832032zm0-48.601563c-20.535156 7.464844-39.609375 1.960938-55.414063-16.085937l-.0625-.070313c-5.453125-6.238281-9.925781-13.273437-13.378906-20.953125 18.027344-9.429687 34.8125-21.738281 49.8125-36.738281 6.910156-6.910156 13.261719-14.222656 19.042969-21.859375zm0-122.597656c-8.054688 13.671875-18.007813 26.5-29.652344 38.144531-36.382812 36.382813-83.984375 55.746094-134.082031 54.492188-3.824219-.09375-6.050781-2.3125-7.039063-3.621094-1.746094-2.316406-2.320312-5.273438-1.582031-8.113281 5.277344-20.253907 4.398437-37.8125 3.542969-54.796875-1.542969-30.683594-2.878906-57.183594 33.53125-93.59375 15.679687-15.679688 29.519531-24.347656 42.648437-29.027344.027344-.007812.050781-.019531.078125-.027344 17.328125-6.160156 33.425782-5.359375 50.875-4.484375 13.183594.664063 26.753906 1.332031 41.683594-.882812v101.910156zm103.683594-113.335937c-4.863282-1.222657-9.632813-2.03125-14.324219-2.535157.613281-14.621093-1.964844-29.925781-7.363281-44.1875 18.035156 19.210938 21.9375 35.636719 21.6875 46.722657zm-37.558594-45.957032c5.941406 13.601563 8.84375 28.53125 8.257812 42.675782-6.226562 0-12.359375.304687-18.449218.609374-5.097657.257813-10.253907.511719-15.5.589844 2.199218-13.742187 10.417968-30.457031 25.691406-43.875zm-31.695313 336.980469c-2.226562 2.203125-4.511719 4.464844-6.617187 6.945313-2.109375-2.480469-4.390625-4.742188-6.613282-6.945313-2.191406-2.167969-4.28125-4.246094-6.195312-6.488281v-32.832032c5.945312 1.695313 11.820312 2.542969 17.574219 2.542969 5.253906 0 10.40625-.726562 15.425781-2.121093.847656 2.683593 1.308594 5.410156 1.308594 8-.003906 16.179687-6.898438 23-14.882813 30.898437zm36.0625-71.257813-.144531.160157c-15.792969 17.980469-34.839844 23.460937-55.34375 16.007812v-95.707031c5.78125 7.632812 12.132812 14.945312 19.042969 21.859375 15.003906 15 31.785156 27.308594 49.8125 36.738281-3.449219 7.675782-7.917969 14.703125-13.367188 20.941406zm58.285157 21.351563c2.441406 1.621094 4.105468 4.09375 4.6875 6.96875.582031 2.871094.011718 5.796875-1.609376 8.242187-2.035156 3.074219-5.460937 4.90625-9.160156 4.90625-2.148437 0-4.238281-.628906-6.046875-1.828124-16.714843-11.085938-25.347656-22.960938-31.625-33.691407 4.917969-6.257812 9.054688-13.101562 12.382813-20.449219.597656.257813 1.191406.519532 1.792968.769532 6.960938 12.964844 13.179688 24.210937 29.578126 35.082031zm57-38.765625c-.988282 1.3125-3.214844 3.527344-7.035157 3.621094-50.039062 1.253906-97.703125-18.109375-134.085937-54.492188-11.640625-11.640625-21.597656-24.472656-29.652344-38.140625v-101.914062c14.925781 2.21875 28.496094 1.546875 41.683594.886719 17.464844-.878907 33.578125-1.675782 50.929687 4.503906h.003907c13.136718 4.675781 26.980468 13.347656 42.664062 29.035156 36.410156 36.40625 35.078125 62.90625 33.535156 93.59375-.855468 16.980469-1.738281 34.542969 3.539063 54.796875.738281 2.835937.164062 5.792969-1.582031 8.109375zm12.890624-95.578125c-.503906-4.691406-1.308593-9.460937-2.535156-14.324219 11.085938-.25 27.511719 3.652344 46.726563 21.6875-14.265625-5.398437-29.570313-7.976562-44.191407-7.363281zm-132.796874 3.695313c-5.234376.179687-10.203126 2.363281-13.984376 6.148437-3.785156 3.785156-5.96875 8.753906-6.152343 13.988281-.183594 5.433594 1.78125 10.492188 5.542969 14.253906 3.59375 3.59375 8.382812 5.550782 13.542968 5.550782.234375 0 .472656-.003906.710938-.011719 5.234375-.179687 10.203125-2.363281 13.984375-6.148437 7.953125-7.953126 8.226562-20.621094.609375-28.238282-3.757813-3.761718-8.792969-5.734375-14.253906-5.542968zm3.039062 23.175781c-1.089844 1.085937-2.472656 1.714843-3.898438 1.761719-.707031.027343-2.0625-.089844-3.128906-1.152344-1.0625-1.066406-1.179687-2.417969-1.152344-3.132813.046876-1.421875.675782-2.808593 1.761719-3.894531 1.089844-1.089844 2.472657-1.714844 3.898438-1.765625.050781 0 .105469-.003906.164062-.003906.742188 0 1.976563.175781 2.964844 1.160156 1.765625 1.769531 1.496094 4.921875-.609375 7.027344zm-132.179688-23.570313 4.621094-12.023437c1.667969-4.332031-.996094-9.117188-5.558594-9.988281-3.375-.640626-6.871093-.039063-9.839843 1.695312-7.164063 4.191406-13.132813 10.160156-17.324219 17.324219-1.738281 2.96875-2.339844 6.464843-1.695312 9.84375.867187 4.558593 5.652343 7.222656 9.988281 5.558593l12.023437-4.621093c3.578125-1.378907 6.410156-4.207031 7.785156-7.789063zm6.433594-61.5c1.464844 1.464844 3.382813 2.195313 5.304688 2.195313 1.917968 0 3.835937-.730469 5.304687-2.195313 2.925781-2.929687 2.925781-7.679687-.003906-10.609375l-6.855469-6.855469c-2.925781-2.929687-7.675781-2.929687-10.605468 0-2.929688 2.929688-2.929688 7.679688 0 10.609376zm-82.578125 68.863282c-2.929687-2.929688-7.675781-2.929688-10.605469 0-2.929687 2.929687-2.929687 7.679687 0 10.609374l6.859376 6.855469c1.460937 1.464844 3.382812 2.195313 5.300781 2.195313s3.839843-.730469 5.304687-2.195313c2.929688-2.929687 2.929688-7.679687 0-10.609375zm228.464844-27.679688c-2.964844-1.734375-6.460937-2.335938-9.839844-1.695312-4.5625.871093-7.222656 5.65625-5.558593 9.988281l4.621093 12.023437c1.375 3.582032 4.207031 6.410156 7.789063 7.789063l12.019531 4.621093c4.335937 1.664063 9.121094-1 9.988281-5.558593.644532-3.378907.042969-6.875-1.695312-9.84375-4.191406-7.164063-10.15625-13.132813-17.324219-17.324219zm65.367187 27.679688-6.855468 6.855468c-2.929688 2.929688-2.929688 7.679688 0 10.609375 1.464844 1.460938 3.382812 2.195313 5.304687 2.195313 1.917969 0 3.839844-.734375 5.304688-2.199219l6.855469-6.855469c2.925781-2.929687 2.925781-7.675781-.003907-10.605468-2.925781-2.929688-7.675781-2.929688-10.605469 0zm0 0"/></svg>